<svg width="51" height="33" viewBox="0 0 51 33" fill="none" xmlns="http://www.w3.org/2000/svg">
<path fill-rule="evenodd" clip-rule="evenodd" d="M50.4375 16.5001C50.4375 16.0276 50.2498 15.5746 49.9158 15.2405C49.5817 14.9065 49.1287 14.7188 48.6562 14.7188H6.64368L17.8549 3.51118C18.1893 3.17671 18.3772 2.72307 18.3772 2.25005C18.3772 1.77704 18.1893 1.3234 17.8549 0.988927C17.5204 0.654456 17.0668 0.466553 16.5937 0.466553C16.1207 0.466553 15.6671 0.654456 15.3326 0.988927L1.08262 15.2389C0.91674 15.4044 0.785133 15.601 0.695335 15.8174C0.605537 16.0338 0.559315 16.2658 0.559315 16.5001C0.559315 16.7343 0.605537 16.9663 0.695335 17.1827C0.785133 17.3992 0.91674 17.5957 1.08262 17.7612L15.3326 32.0112C15.6671 32.3456 16.1207 32.5336 16.5937 32.5336C17.0668 32.5336 17.5204 32.3456 17.8549 32.0112C18.1893 31.6767 18.3772 31.2231 18.3772 30.7501C18.3772 30.277 18.1893 29.8234 17.8549 29.4889L6.64368 18.2813H48.6562C49.1287 18.2813 49.5817 18.0936 49.9158 17.7596C50.2498 17.4255 50.4375 16.9725 50.4375 16.5001Z" fill="#3BB9FF"/>
</svg>
