<svg width="11" height="11" viewBox="0 0 11 11" fill="none" xmlns="http://www.w3.org/2000/svg">
<g clip-path="url(#clip0_397_1541)">
<path d="M1.12463 3.63897C1.25356 3.51009 1.42839 3.43768 1.61069 3.43768C1.79299 3.43768 1.96783 3.51009 2.09676 3.63897L5.49988 7.0421L8.90301 3.63898C9.03267 3.51374 9.20633 3.44445 9.38659 3.44601C9.56685 3.44758 9.73929 3.51988 9.86676 3.64735C9.99422 3.77482 10.0665 3.94725 10.0681 4.12751C10.0697 4.30777 10.0004 4.48144 9.87513 4.6111L5.98594 8.50029C5.85702 8.62917 5.68218 8.70158 5.49988 8.70158C5.31758 8.70158 5.14274 8.62917 5.01382 8.50029L1.12463 4.6111C0.995744 4.48217 0.92334 4.30734 0.92334 4.12504C0.92334 3.94274 0.995744 3.7679 1.12463 3.63897Z" fill="#3BB9FF"/>
</g>
<defs>
<clipPath id="clip0_397_1541">
<rect width="11" height="11" fill="white"/>
</clipPath>
</defs>
</svg>
