<svg width="32" height="32" viewBox="0 0 32 32" fill="none" xmlns="http://www.w3.org/2000/svg">
<path d="M1 19.7998C1.26522 19.7998 1.51957 19.9052 1.70711 20.0927C1.89464 20.2802 2 20.5346 2 20.7998V25.7998C2 26.3302 2.21071 26.8389 2.58579 27.214C2.96086 27.5891 3.46957 27.7998 4 27.7998H28C28.5304 27.7998 29.0391 27.5891 29.4142 27.214C29.7893 26.8389 30 26.3302 30 25.7998V20.7998C30 20.5346 30.1054 20.2802 30.2929 20.0927C30.4804 19.9052 30.7348 19.7998 31 19.7998C31.2652 19.7998 31.5196 19.9052 31.7071 20.0927C31.8946 20.2802 32 20.5346 32 20.7998V25.7998C32 26.8607 31.5786 27.8781 30.8284 28.6282C30.0783 29.3784 29.0609 29.7998 28 29.7998H4C2.93913 29.7998 1.92172 29.3784 1.17157 28.6282C0.421427 27.8781 0 26.8607 0 25.7998V20.7998C0 20.5346 0.105357 20.2802 0.292893 20.0927C0.48043 19.9052 0.734784 19.7998 1 19.7998Z" fill="white"/>
<path d="M15.2913 23.708C15.3842 23.8011 15.4946 23.875 15.616 23.9254C15.7375 23.9758 15.8678 24.0018 15.9993 24.0018C16.1308 24.0018 16.2611 23.9758 16.3826 23.9254C16.5041 23.875 16.6144 23.8011 16.7073 23.708L22.7073 17.708C22.8951 17.5202 23.0006 17.2656 23.0006 17C23.0006 16.7344 22.8951 16.4798 22.7073 16.292C22.5195 16.1042 22.2649 15.9987 21.9993 15.9987C21.7338 15.9987 21.4791 16.1042 21.2913 16.292L16.9993 20.586V3C16.9993 2.73478 16.894 2.48043 16.7064 2.29289C16.5189 2.10536 16.2645 2 15.9993 2C15.7341 2 15.4797 2.10536 15.2922 2.29289C15.1047 2.48043 14.9993 2.73478 14.9993 3V20.586L10.7073 16.292C10.5195 16.1042 10.2649 15.9987 9.99931 15.9987C9.73376 15.9987 9.47908 16.1042 9.29131 16.292C9.10354 16.4798 8.99805 16.7344 8.99805 17C8.99805 17.2656 9.10354 17.5202 9.29131 17.708L15.2913 23.708Z" fill="white"/>
</svg>
