<svg width="18" height="18" viewBox="0 0 18 18" fill="none" xmlns="http://www.w3.org/2000/svg">
<g clip-path="url(#clip0_408_924)">
<path d="M13.6868 10.0575C13.0972 11.2522 12.2985 12.4425 11.4818 13.5113C10.707 14.5188 9.87851 15.484 9 16.4025C8.12147 15.484 7.29302 14.5188 6.51825 13.5113C5.7015 12.4425 4.90275 11.2522 4.31325 10.0575C3.717 8.85037 3.375 7.71975 3.375 6.75C3.375 5.25816 3.96763 3.82742 5.02252 2.77252C6.07742 1.71763 7.50816 1.125 9 1.125C10.4918 1.125 11.9226 1.71763 12.9775 2.77252C14.0324 3.82742 14.625 5.25816 14.625 6.75C14.625 7.71975 14.2819 8.85037 13.6868 10.0575ZM9 18C9 18 15.75 11.6033 15.75 6.75C15.75 4.95979 15.0388 3.2429 13.773 1.97703C12.5071 0.711159 10.7902 0 9 0C7.20979 0 5.4929 0.711159 4.22703 1.97703C2.96116 3.2429 2.25 4.95979 2.25 6.75C2.25 11.6033 9 18 9 18Z" fill="#3BB9FF"/>
<path d="M9 9C8.40326 9 7.83097 8.76295 7.40901 8.34099C6.98705 7.91903 6.75 7.34674 6.75 6.75C6.75 6.15326 6.98705 5.58097 7.40901 5.15901C7.83097 4.73705 8.40326 4.5 9 4.5C9.59674 4.5 10.169 4.73705 10.591 5.15901C11.0129 5.58097 11.25 6.15326 11.25 6.75C11.25 7.34674 11.0129 7.91903 10.591 8.34099C10.169 8.76295 9.59674 9 9 9ZM9 10.125C9.89511 10.125 10.7536 9.76942 11.3865 9.13649C12.0194 8.50355 12.375 7.64511 12.375 6.75C12.375 5.85489 12.0194 4.99645 11.3865 4.36351C10.7536 3.73058 9.89511 3.375 9 3.375C8.10489 3.375 7.24645 3.73058 6.61351 4.36351C5.98058 4.99645 5.625 5.85489 5.625 6.75C5.625 7.64511 5.98058 8.50355 6.61351 9.13649C7.24645 9.76942 8.10489 10.125 9 10.125Z" fill="#3BB9FF"/>
</g>
<defs>
<clipPath id="clip0_408_924">
<rect width="18" height="18" fill="white"/>
</clipPath>
</defs>
</svg>
