<svg width="15" height="15" viewBox="0 0 15 15" fill="none" xmlns="http://www.w3.org/2000/svg">
<path fill-rule="evenodd" clip-rule="evenodd" d="M7.50024 1.36364C4.11122 1.36364 1.36388 4.11098 1.36388 7.5C1.36388 10.889 4.11122 13.6364 7.50024 13.6364C10.8893 13.6364 13.6366 10.889 13.6366 7.5C13.6366 4.11098 10.8893 1.36364 7.50024 1.36364ZM0.000244141 7.5C0.000244141 3.35786 3.35811 0 7.50024 0C11.6424 0 15.0002 3.35786 15.0002 7.5C15.0002 11.6421 11.6424 15 7.50024 15C3.35811 15 0.000244141 11.6421 0.000244141 7.5Z" fill="#3BB9FF"/>
<path fill-rule="evenodd" clip-rule="evenodd" d="M7.50024 2.72727C7.8768 2.72727 8.18206 3.03253 8.18206 3.40909V7.21758L10.0278 9.06334C10.2941 9.3296 10.2941 9.76131 10.0278 10.0276C9.76155 10.2938 9.32985 10.2938 9.06358 10.0276L7.01813 7.98212C6.89026 7.85425 6.81843 7.68083 6.81843 7.5V3.40909C6.81843 3.03253 7.12369 2.72727 7.50024 2.72727Z" fill="#3BB9FF"/>
</svg>
