<svg width="24" height="24" viewBox="0 0 24 24" fill="none" xmlns="http://www.w3.org/2000/svg">
<path d="M2.45371 7.93967C2.735 7.65846 3.11646 7.50049 3.51421 7.50049C3.91195 7.50049 4.29341 7.65846 4.57471 7.93967L11.9997 15.3647L19.4247 7.93967C19.7076 7.66643 20.0865 7.51524 20.4798 7.51866C20.8731 7.52207 21.2493 7.67983 21.5274 7.95794C21.8055 8.23605 21.9633 8.61227 21.9667 9.00557C21.9701 9.39886 21.8189 9.77776 21.5457 10.0607L13.0602 18.5462C12.7789 18.8274 12.3975 18.9853 11.9997 18.9853C11.602 18.9853 11.2205 18.8274 10.9392 18.5462L2.45371 10.0607C2.1725 9.77938 2.01453 9.39791 2.01453 9.00017C2.01453 8.60242 2.1725 8.22096 2.45371 7.93967Z" fill="#3BB9FF"/>
</svg>
