<svg width="123" height="31" viewBox="0 0 123 31" fill="none" xmlns="http://www.w3.org/2000/svg">
<g clip-path="url(#clip0_408_611)">
<path d="M4.58821 29.1897L4.97189 27.8731C3.37538 27.7634 2.14766 27.3189 1.28838 26.5401C0.429458 25.7613 0 24.7627 0 23.5447C0 21.8552 0.673215 20.4588 2.01965 19.3561C3.36608 18.2533 5.14234 17.7021 7.34768 17.7021H8.02425L8.33499 16.6816H11.899L11.5887 17.7351C13.209 17.8341 14.4613 18.2615 15.3448 19.0188C16.2282 19.7757 16.67 20.7524 16.67 21.9482C16.67 23.66 15.9934 25.0808 14.641 26.2106C13.2883 27.3408 11.515 27.9057 9.32155 27.9057H8.53558L8.15152 29.1894H4.58821V29.1897ZM5.81257 25.0752L7.18357 20.533H6.90929C5.97074 20.533 5.19704 20.7717 4.58821 21.2491C3.97863 21.7262 3.67421 22.3763 3.67421 23.1992C3.67421 23.7478 3.86624 24.1841 4.24993 24.5077C4.63361 24.8313 5.15462 25.0204 5.81257 25.0752ZM9.37738 25.0752H9.76106C10.6873 25.0752 11.4581 24.8395 12.0732 24.3676C12.6887 23.8961 12.9961 23.2482 12.9961 22.4256C12.9961 21.877 12.7952 21.4382 12.3933 21.109C11.991 20.7798 11.4428 20.5934 10.7476 20.5496L9.37738 25.0752Z" fill="#608FF7"/>
<path d="M16.543 28.6954L19.9798 17.1748H23.4709L21.5517 23.6594L28.4249 17.1748H31.7337L28.3151 28.6954H24.8054L26.7249 22.2108L19.8517 28.6954H16.543Z" fill="#608FF7"/>
<path d="M29.0645 30.9995L30.5635 25.8975H31.6055C32.3487 24.9979 32.9824 24.0516 33.5064 23.0585C34.0304 22.0659 34.5853 20.5817 35.1699 18.6067L35.5904 17.1748H45.516L42.9203 25.8975H44.3642L42.445 30.9995H39.4474L40.1418 28.6954H33.1588L32.2266 30.9995H29.0645ZM35.4073 25.8975H39.3741L41.1838 19.8904H38.2226L37.839 21.0261C37.1683 23.023 36.3578 24.6469 35.4073 25.8975Z" fill="#608FF7"/>
<path d="M43.3223 28.6954L50.1035 21.7008L47.2704 17.1748H51.1456L53.7595 21.9476L55.1856 17.1748H58.7318L57.3608 21.816L62.5158 17.1748H66.9213L60.9807 22.1448L63.5943 28.695H59.6458L58.0005 24.3667L56.1543 25.8479L55.3136 28.695H51.7674L52.6814 25.6173L51.8404 24.284L47.8554 28.6954H43.3223Z" fill="#608FF7"/>
<path d="M64.7266 28.6954L68.1633 17.1748H71.6545L69.7349 23.6594L76.6081 17.1748H79.9169L76.4983 28.6954H72.9886L74.9082 22.2108L68.035 28.6954H64.7266Z" fill="#608FF7"/>
<path d="M79.5195 28.6954L82.8588 17.5039H88.099C89.2359 17.5039 90.1418 17.7308 90.8165 18.1845C91.4904 18.6378 91.8276 19.2594 91.8276 20.0497C91.8276 20.8252 91.5232 21.4616 90.9136 21.9591C90.3044 22.4565 89.5125 22.7931 88.5374 22.9684C89.2356 23.1148 89.8087 23.4003 90.2553 23.8243C90.7018 24.2487 90.9255 24.7755 90.9255 25.4045C90.9255 26.3697 90.4585 27.16 89.5244 27.7742C88.5899 28.3888 87.3268 28.6957 85.7344 28.6957H79.5195V28.6954ZM80.9821 27.7297H85.6373C86.8721 27.7297 87.8508 27.5177 88.5743 27.0937C89.2974 26.6696 89.6587 26.0843 89.6587 25.3381C89.6587 24.7384 89.3662 24.2702 88.7816 23.9337C88.1962 23.5974 87.4411 23.4288 86.5148 23.4288H82.2742L80.9821 27.7297ZM82.5421 22.5073H86.539C87.7414 22.5073 88.7082 22.2916 89.4391 21.8597C90.1704 21.4286 90.5359 20.8541 90.5359 20.1372C90.5359 19.0255 89.6345 18.4695 87.8311 18.4695H83.7609L82.5421 22.5073Z" fill="#608FF7"/>
<path d="M99.6763 28.959C98.0835 28.959 96.7839 28.5201 95.7765 27.6424C94.7688 26.765 94.2656 25.6385 94.2656 24.2629C94.2656 22.4637 94.9723 20.8434 96.3861 19.4026C97.7995 17.9618 99.4891 17.2412 101.456 17.2412C102.95 17.2412 104.108 17.6508 104.928 18.47C105.749 19.2896 106.159 20.3063 106.159 21.5203C106.159 22.2372 106.045 22.8881 105.818 23.4734H95.6061C95.5734 23.7955 95.557 24.0439 95.557 24.2196C95.557 25.346 95.9388 26.2494 96.7028 26.9296C97.4661 27.6101 98.4575 27.95 99.6763 27.95C101.154 27.95 102.568 27.453 103.917 26.4577L104.624 27.2257C103.08 28.3815 101.431 28.959 99.6763 28.959ZM95.8253 22.5078H104.844C104.908 22.2442 104.941 21.9373 104.941 21.5863C104.941 20.6207 104.644 19.8196 104.051 19.1832C103.458 18.5471 102.585 18.2287 101.431 18.2287C100.099 18.2287 98.9249 18.6383 97.9093 19.4575C96.8934 20.277 96.1989 21.2934 95.8253 22.5078Z" fill="#608FF7"/>
<path d="M116.054 17.5921C117.711 17.5921 119.047 18.031 120.063 18.9087C121.079 19.7865 121.587 20.9352 121.587 22.3538C121.587 24.08 120.835 25.6124 119.332 26.9509C117.829 28.2894 116.176 28.9589 114.372 28.9589C112.553 28.9589 111.168 28.4981 110.217 27.5766C109.267 26.6551 108.791 25.4627 108.791 23.9996C108.791 23.3268 108.856 22.6281 108.986 21.9038C109.116 21.1799 109.348 20.4115 109.681 19.5997C110.014 18.7879 110.424 18.0495 110.912 17.3834C111.399 16.7177 112.032 16.1253 112.812 15.606C113.592 15.0871 114.47 14.732 115.445 14.5418L122.732 13.1377L123 14.1029L115.81 15.5512C114.461 15.8292 113.397 16.3047 112.617 16.9775C111.837 17.6507 111.228 18.5944 110.789 19.8084H110.887C112.3 18.3309 114.023 17.5921 116.054 17.5921ZM115.883 18.5577C114.323 18.5577 112.962 19.1026 111.801 20.1924C110.639 21.2822 110.058 22.5733 110.058 24.0656C110.058 25.1921 110.427 26.121 111.167 26.8523C111.906 27.584 112.974 27.9495 114.372 27.9495C115.834 27.9495 117.183 27.3757 118.418 26.227C119.653 25.0786 120.27 23.7728 120.27 22.3101C120.27 21.1547 119.884 20.2402 119.113 19.5671C118.341 18.8943 117.264 18.5577 115.883 18.5577Z" fill="#608FF7"/>
<path d="M1.39258 5.98193C1.39258 4.80466 1.77998 3.82496 2.55405 3.04172C3.32775 2.2596 4.31022 1.86816 5.49997 1.86816C6.72843 1.86816 7.71202 2.22142 8.4511 2.9283L7.87948 3.77159C7.58214 3.50544 7.22153 3.29267 6.79802 3.13291C6.37563 2.97389 5.95734 2.89382 5.54649 2.89382C4.63101 2.89382 3.90495 3.18629 3.36682 3.77159C2.82795 4.35651 2.56038 5.08934 2.56038 5.97044C2.56038 6.85932 2.83465 7.61142 3.3832 8.22711C3.93286 8.84206 4.66041 9.14972 5.56807 9.14972C6.01874 9.14972 6.46309 9.05668 6.90073 8.8706C7.33987 8.68453 7.72355 8.42802 8.05067 8.10108L8.65727 8.91027C7.80356 9.76134 6.76192 10.1865 5.53495 10.1865C4.30649 10.1865 3.30988 9.78654 2.54251 8.98403C1.77626 8.18337 1.39258 7.18255 1.39258 5.98193Z" fill="white"/>
<path d="M10.3379 10.0506L13.2325 2.00586H14.4337L17.3283 10.0506H16.1616L15.3492 7.73762H12.3066L11.4942 10.0506H10.3379ZM12.6039 6.80278H15.0515L14.1591 4.26216L13.8387 3.11122H13.8156C13.7025 3.59717 13.5994 3.98119 13.5067 4.26216L12.6039 6.80278Z" fill="white"/>
<path d="M19.709 10.0501V2.00499H20.8422V7.2241L20.7741 8.39766H20.796C21.064 7.89614 21.2917 7.50174 21.4838 7.21261L25.0646 2.00499H26.1732V10.0498H25.053V4.83065L25.1211 3.65709H25.0981C24.8394 4.14304 24.6139 4.53448 24.4233 4.83065L20.8195 10.0498H19.709V10.0501ZM22.9805 1.62949C22.5157 1.62949 22.1179 1.4979 21.7856 1.23658C21.4532 0.974136 21.2873 0.619029 21.2873 0.170882V0H22.1808V0.15902C22.1808 0.395141 22.2608 0.578996 22.4204 0.711698C22.5801 0.845141 22.768 0.911121 22.9805 0.911121C23.202 0.911121 23.3925 0.845141 23.5536 0.711698C23.7133 0.578996 23.7933 0.391063 23.7933 0.1479V0H24.6742V0.170511C24.6742 0.618658 24.5108 0.974136 24.1822 1.2362C23.8547 1.4979 23.4543 1.62949 22.9805 1.62949Z" fill="white"/>
<path d="M31.3424 10.05V2.98495H28.5625V2.00488H35.2437V2.98458H32.4637V10.0497H31.3424V10.05Z" fill="white"/>
<path d="M41.6387 10.05V2.00488H44.6025C45.3494 2.00488 45.9571 2.23507 46.4271 2.69434C46.8956 3.15398 47.1301 3.76374 47.1301 4.52326C47.1301 5.28314 46.8945 5.89883 46.4208 6.36922C45.9481 6.84035 45.3419 7.07573 44.6028 7.07573H42.7719V10.0497H41.6387V10.05ZM42.7715 6.09603H44.4182C44.8998 6.09603 45.2809 5.95555 45.563 5.6742C45.8451 5.39323 45.9865 5.00995 45.9865 4.52326C45.9865 4.04471 45.8473 3.66922 45.5682 3.39529C45.2902 3.1221 44.9102 2.98495 44.4302 2.98495H42.7719V6.09603H42.7715Z" fill="white"/>
<path d="M48.377 10.0506L51.2715 2.00586H52.4728L55.3674 10.0506H54.2007L53.3883 7.73762H50.3456L49.5332 10.0506H48.377ZM50.643 6.80278H53.0906L52.1982 4.26216L51.8777 3.11122H51.8547C51.7415 3.59717 51.6385 3.98119 51.5458 4.26216L50.643 6.80278Z" fill="white"/>
<path d="M56.9922 9.09288L57.6219 8.32965C57.8496 8.57282 58.1343 8.77409 58.4741 8.93385C58.8127 9.09287 59.1618 9.17294 59.5209 9.17294C60.023 9.17294 60.4301 9.04135 60.739 8.78002C61.0479 8.51759 61.2027 8.16248 61.2027 7.71433C61.2027 7.30399 61.0624 6.97965 60.7844 6.74019C60.5064 6.50111 60.1421 6.38101 59.6925 6.38101H58.6974V5.44691H59.4982C59.9102 5.44691 60.2552 5.32495 60.5335 5.08216C60.8119 4.83937 60.9507 4.528 60.9507 4.14806C60.9507 3.77627 60.8309 3.46824 60.5901 3.22544C60.3505 2.98228 59.9939 2.8607 59.5213 2.8607C58.857 2.8607 58.2545 3.08829 57.7134 3.54423L57.2318 2.70094C57.9039 2.14678 58.7204 1.86914 59.681 1.86914C60.3903 1.86914 60.9712 2.06078 61.4256 2.44443C61.8789 2.82845 62.1066 3.35036 62.1066 4.01165C62.1066 4.83195 61.7166 5.43579 60.9388 5.82314V5.84612C61.3739 5.96733 61.7192 6.19752 61.9741 6.53558C62.2302 6.87364 62.3578 7.28583 62.3578 7.77179C62.3578 8.50091 62.0966 9.0862 61.5737 9.52694C61.0523 9.9673 60.3981 10.1875 59.6129 10.1875C59.116 10.1875 58.6345 10.0907 58.1656 9.89687C57.6955 9.70264 57.3052 9.43464 56.9922 9.09288Z" fill="white"/>
<path d="M65.1367 10.05V2.00488H68.1005C68.8474 2.00488 69.4551 2.23507 69.9251 2.69434C70.3937 3.15398 70.6281 3.76374 70.6281 4.52326C70.6281 5.28314 70.3926 5.89883 69.9188 6.36922C69.4462 6.84035 68.84 7.07573 68.1009 7.07573H66.2699V10.0497H65.1367V10.05ZM66.2699 6.09603H67.9167C68.3982 6.09603 68.7793 5.95555 69.0614 5.6742C69.3435 5.39323 69.4849 5.00995 69.4849 4.52326C69.4849 4.04471 69.3457 3.66922 69.0666 3.39529C68.7886 3.1221 68.4086 2.98495 67.9286 2.98495H66.2703V6.09603H66.2699Z" fill="white"/>
<path d="M71.875 10.0506L74.7696 2.00586H75.9709L78.8654 10.0506H77.6987L76.8863 7.73762H73.8437L73.0313 10.0506H71.875ZM74.1414 6.80278H76.589L75.6966 4.26216L75.3762 3.11122H75.3531C75.24 3.59717 75.1369 3.98119 75.0442 4.26216L74.1414 6.80278Z" fill="white"/>
<path d="M81.2441 10.05V2.00488H86.0147V2.98458H82.3773V5.22939H84.1502C84.8752 5.22939 85.4662 5.44439 85.9232 5.87326C86.3816 6.30287 86.6094 6.89743 86.6094 7.65658C86.6094 8.37087 86.3865 8.94801 85.941 9.38838C85.4941 9.82948 84.9161 10.0497 84.2079 10.0497H81.2441V10.05ZM82.377 9.07034H84.0237C84.4744 9.07034 84.8272 8.94468 85.0821 8.6941C85.3385 8.44352 85.4658 8.09768 85.4658 7.65732C85.4658 7.21696 85.3344 6.86556 85.0706 6.60312C84.8078 6.34142 84.4513 6.2102 84.0018 6.2102H82.377V9.07034Z" fill="white"/>
<path d="M88.8066 5.97007C88.8066 4.81578 89.2071 3.84313 90.0079 3.05322C90.8088 2.2633 91.7924 1.86816 92.9602 1.86816C94.1268 1.86816 95.1089 2.2633 95.9061 3.05322C96.7032 3.84313 97.101 4.81615 97.101 5.97007C97.101 7.15512 96.7032 8.15409 95.9061 8.96735C95.1089 9.78061 94.1268 10.1865 92.9602 10.1865C91.7924 10.1865 90.8088 9.78061 90.0079 8.96735C89.2071 8.15409 88.8066 7.15512 88.8066 5.97007ZM89.9744 5.97007C89.9744 6.86636 90.264 7.62069 90.8434 8.2323C91.4228 8.84355 92.1284 9.14935 92.9602 9.14935C93.7908 9.14935 94.4949 8.84355 95.0706 8.2323C95.6463 7.62069 95.9347 6.86636 95.9347 5.97007C95.9347 5.10454 95.6463 4.37468 95.0706 3.78234C94.4949 3.18999 93.7908 2.89345 92.9602 2.89345C92.1284 2.89345 91.4228 3.18962 90.8434 3.78234C90.264 4.37505 89.9744 5.10454 89.9744 5.97007Z" fill="white"/>
<path d="M101.401 10.05V2.98495H98.6211V2.00488H105.302V2.98458H102.522V10.0497H101.401V10.05Z" fill="white"/>
<path d="M106.115 10.0506L109.01 2.00586H110.211L113.106 10.0506H111.939L111.127 7.73762H108.084L107.271 10.0506H106.115ZM108.382 6.80278H110.829L109.937 4.26216L109.616 3.11122H109.593C109.48 3.59717 109.377 3.98119 109.284 4.26216L108.382 6.80278Z" fill="white"/>
<path d="M115.484 10.05V2.00488H116.618V5.53742H120.816V2.00488H121.937V10.0497H120.816V6.51712H116.618V10.0497H115.484V10.05Z" fill="white"/>
</g>
<defs>
<clipPath id="clip0_408_611">
<rect width="123" height="31" fill="white"/>
</clipPath>
</defs>
</svg>
