<svg width="18" height="18" viewBox="0 0 18 18" fill="none" xmlns="http://www.w3.org/2000/svg">
<path d="M3.9375 3H14.0625C14.6851 2.99996 15.2841 3.23817 15.7367 3.66575C16.1892 4.09334 16.461 4.6779 16.4963 5.2995L16.5 5.4375V12.5625C16.5 13.1851 16.2618 13.7841 15.8342 14.2367C15.4067 14.6892 14.8221 14.961 14.2005 14.9963L14.0625 15H3.9375C3.3149 15 2.71588 14.7618 2.26333 14.3342C1.81078 13.9067 1.539 13.3221 1.50375 12.7005L1.5 12.5625V5.4375C1.49996 4.8149 1.73817 4.21588 2.16575 3.76333C2.59334 3.31078 3.1779 3.039 3.7995 3.00375L3.9375 3H14.0625H3.9375ZM15.375 7.02975L9.2625 10.2473C9.19348 10.2837 9.11763 10.3054 9.03977 10.311C8.96191 10.3165 8.88374 10.3058 8.81025 10.2795L8.73825 10.248L2.625 7.0305V12.5625C2.62501 12.8919 2.74888 13.2092 2.97201 13.4515C3.19514 13.6938 3.50122 13.8434 3.8295 13.8705L3.9375 13.875H14.0625C14.392 13.875 14.7095 13.751 14.9518 13.5277C15.1941 13.3044 15.3436 12.9982 15.3705 12.6698L15.375 12.5625V7.02975ZM14.0625 4.125H3.9375C3.60811 4.12501 3.29076 4.24888 3.04846 4.47201C2.80615 4.69514 2.6566 5.00122 2.6295 5.3295L2.625 5.4375V5.75925L9 9.114L15.375 5.7585V5.4375C15.375 5.10799 15.251 4.79054 15.0277 4.54822C14.8044 4.3059 14.4982 4.15643 14.1698 4.1295L14.0625 4.125Z" fill="#3BB9FF"/>
</svg>
