<svg width="99" height="99" viewBox="0 0 99 99" fill="none" xmlns="http://www.w3.org/2000/svg">
<circle cx="50.625" cy="38" r="22" fill="white"/>
<path d="M50.125 99C50.125 99 87.25 63.8179 87.25 37.125C87.25 27.2788 83.3386 17.8359 76.3763 10.8737C69.4141 3.91137 59.9712 0 50.125 0C40.2788 0 30.8359 3.91137 23.8737 10.8737C16.9114 17.8359 13 27.2788 13 37.125C13 63.8179 50.125 99 50.125 99ZM50.125 55.6875C45.2019 55.6875 40.4805 53.7318 36.9993 50.2507C33.5182 46.7695 31.5625 42.0481 31.5625 37.125C31.5625 32.2019 33.5182 27.4805 36.9993 23.9993C40.4805 20.5182 45.2019 18.5625 50.125 18.5625C55.0481 18.5625 59.7695 20.5182 63.2507 23.9993C66.7318 27.4805 68.6875 32.2019 68.6875 37.125C68.6875 42.0481 66.7318 46.7695 63.2507 50.2507C59.7695 53.7318 55.0481 55.6875 50.125 55.6875Z" fill="#3BB9FF"/>
</svg>
