<svg width="21" height="21" viewBox="0 0 21 21" fill="none" xmlns="http://www.w3.org/2000/svg">
<path d="M5.68035 1.96875C5.33714 1.96875 4.99785 2.09344 4.71567 2.31656L4.67629 2.33822L4.65529 2.35791L2.60451 4.47103L2.6242 4.49072C1.99223 5.07609 1.79535 5.95022 2.07032 6.70622C2.07164 6.7095 2.06901 6.72197 2.07032 6.72591C2.62617 8.31928 4.05023 11.3918 6.82814 14.1704C9.6172 16.9595 12.7324 18.3245 14.2726 18.9282H14.2923C14.6786 19.0556 15.0913 19.081 15.4903 19.0019C15.8893 18.9227 16.261 18.7418 16.5695 18.4767L16.5892 18.457L16.6102 18.436L18.6419 16.4062C19.1866 15.8616 19.1866 14.9205 18.6419 14.3758L15.9763 11.7101L15.9553 11.6688C15.4106 11.1241 14.4492 11.1241 13.9045 11.6688L13.8848 11.6898L12.592 12.9826C11.6069 12.5093 10.7009 11.8866 9.90595 11.1366C8.83232 10.1108 8.28239 8.93156 8.08157 8.46956L9.39276 7.15706C9.94532 6.6045 9.95386 5.68969 9.37307 5.14762L9.39276 5.12662L9.33173 5.06559L6.70673 2.35791L6.68507 2.33822L6.64439 2.31656C6.37131 2.09504 6.03131 1.97245 5.6797 1.96875H5.68035ZM5.68035 3.28125C5.72892 3.28125 5.77682 3.30487 5.82473 3.34294L8.44973 6.02897L8.49042 6.07031L8.51011 6.09C8.50551 6.08672 8.54948 6.15366 8.46942 6.23438L6.82879 7.875L6.52035 8.16244L6.66473 8.57194C6.66473 8.57194 7.41942 10.5886 9.00295 12.0999L9.14535 12.2227C10.6705 13.6152 12.4686 14.3752 12.4686 14.3752L12.8788 14.5602L13.1872 14.2531L14.8278 12.6125C14.9394 12.5009 14.9197 12.5009 15.0313 12.6125L17.7186 15.2985C17.8302 15.4101 17.8302 15.3707 17.7186 15.4822L15.7085 17.4923C15.4066 17.7522 15.087 17.8047 14.7044 17.6774C13.2161 17.0933 10.3273 15.8222 7.75148 13.2477C5.15601 10.6509 3.79954 7.70437 3.3021 6.27572C3.2017 6.00863 3.27389 5.61291 3.50685 5.41406L3.52654 5.39438L3.54754 5.37272L5.53729 3.34294C5.57634 3.30675 5.62659 3.28498 5.6797 3.28125H5.68035Z" fill="#3BB9FF"/>
</svg>
