<svg width="61" height="61" viewBox="0 0 61 61" fill="none" xmlns="http://www.w3.org/2000/svg">
<circle cx="30.5" cy="30.5" r="30.5" fill="#F5FBFE"/>
<path d="M36.7524 17.4765C37.1508 17.875 37.3746 18.4154 37.3746 18.9789C37.3746 19.5424 37.1508 20.0828 36.7524 20.4813L26.2337 31L36.7524 41.5188C37.1395 41.9196 37.3537 42.4563 37.3488 43.0135C37.344 43.5707 37.1205 44.1037 36.7265 44.4976C36.3325 44.8916 35.7995 45.1151 35.2424 45.12C34.6852 45.1248 34.1484 44.9106 33.7477 44.5235L21.7265 32.5024C21.3281 32.1039 21.1044 31.5635 21.1044 31C21.1044 30.4366 21.3281 29.8962 21.7265 29.4977L33.7477 17.4765C34.1461 17.0782 34.6866 16.8544 35.25 16.8544C35.8135 16.8544 36.3539 17.0782 36.7524 17.4765Z" fill="#BFD1EF"/>
</svg>
