<svg width="3120" height="652" viewBox="0 0 3120 652" fill="none" xmlns="http://www.w3.org/2000/svg">
<path d="M3119 615.527L2338.12 72.9824C2337.5 72.5477 2336.68 72.5062 2336.01 72.8753L2151.36 175.138C2150.68 175.512 2149.85 175.464 2149.23 175.017L1906.61 1.83819C1905.91 1.33771 1904.97 1.34242 1904.27 1.84988L1525.81 277.743C1525.05 278.3 1524 278.246 1523.29 277.613L1296.68 73.591C1295.86 72.8597 1294.61 72.9159 1293.87 73.7173L1160.34 217.686C1159.63 218.451 1158.46 218.542 1157.64 217.895L884.414 1.94653C883.707 1.38761 882.713 1.37078 881.987 1.90545L1.00009 651" stroke="#3BB9FF" stroke-width="2" stroke-linecap="round"/>
</svg>
