<svg width="23" height="22" viewBox="0 0 23 22" fill="none" xmlns="http://www.w3.org/2000/svg">
<path d="M9.56043 12.8473C10.9703 14.2442 12.6761 15.3227 14.5582 16.0071L17.1043 14.0281C17.1798 13.9773 17.2693 13.9501 17.361 13.9501C17.4526 13.9501 17.5421 13.9773 17.6176 14.0281L22.3452 17.0032C22.5247 17.1086 22.6767 17.2533 22.789 17.4259C22.9014 17.5985 22.9712 17.7943 22.9928 17.9977C23.0144 18.2012 22.9873 18.4068 22.9136 18.5982C22.8399 18.7897 22.7216 18.9618 22.5681 19.101L20.3529 21.2383C20.0357 21.5445 19.6457 21.7692 19.218 21.8923C18.7902 22.0155 18.3378 22.0333 17.9013 21.9442C13.5466 21.0657 9.53284 19.0083 6.31864 16.0071C3.17578 12.9761 1.00094 9.11935 0.0579373 4.90479C-0.0352194 4.485 -0.0157763 4.04883 0.114382 3.63854C0.244541 3.22824 0.481001 2.85775 0.800847 2.56295L3.09712 0.399227C3.23921 0.256597 3.4125 0.147215 3.60401 0.0792704C3.79552 0.011326 4.00029 -0.01342 4.20298 0.00688528C4.40567 0.0271906 4.60103 0.0920211 4.77443 0.196522C4.94783 0.301024 5.09478 0.442488 5.20428 0.610322L8.35152 5.16866C8.4058 5.24024 8.4351 5.32696 8.4351 5.41604C8.4351 5.50512 8.4058 5.59184 8.35152 5.66342L6.27812 8.09761C6.99779 9.89914 8.11901 11.5216 9.56043 12.8473Z" fill="#72BDEF"/>
</svg>
