<svg width="16" height="15" viewBox="0 0 16 15" fill="none" xmlns="http://www.w3.org/2000/svg">
<path d="M6.65074 8.75949C7.63149 9.71196 8.81817 10.4473 10.1274 10.9139L11.8987 9.5646C11.9512 9.52998 12.0135 9.51144 12.0772 9.51144C12.141 9.51144 12.2032 9.52998 12.2557 9.5646L15.5445 11.5931C15.6694 11.665 15.7751 11.7636 15.8532 11.8813C15.9314 11.999 15.9799 12.1325 15.995 12.2712C16.01 12.4099 15.9912 12.5501 15.9399 12.6806C15.8886 12.8112 15.8063 12.9285 15.6996 13.0234L14.1585 14.4807C13.9378 14.6894 13.6666 14.8426 13.369 14.9266C13.0714 15.0106 12.7568 15.0227 12.4531 14.9619C9.42374 14.363 6.63154 12.9602 4.39558 10.9139C2.20924 8.84731 0.696308 6.21774 0.0403042 3.34418C-0.0245005 3.05796 -0.0109749 2.76056 0.0795703 2.48082C0.170115 2.20107 0.33461 1.94846 0.557111 1.74747L2.15452 0.2722C2.25337 0.174952 2.37392 0.100374 2.50714 0.054048C2.64036 0.00772229 2.78281 -0.00915002 2.92381 0.00469451C3.06481 0.018539 3.20071 0.0627416 3.32134 0.133992C3.44197 0.205243 3.5442 0.301696 3.62037 0.416129L5.80975 3.52409C5.84751 3.57289 5.8679 3.63202 5.8679 3.69276C5.8679 3.75349 5.84751 3.81262 5.80975 3.86142L4.36739 5.5211C4.86802 6.74941 5.64801 7.85563 6.65074 8.75949Z" fill="white"/>
</svg>
