<svg width="16" height="16" viewBox="0 0 16 16" fill="none" xmlns="http://www.w3.org/2000/svg">
<path fill-rule="evenodd" clip-rule="evenodd" d="M8 1.45455C4.38505 1.45455 1.45455 4.38505 1.45455 8C1.45455 11.615 4.38505 14.5455 8 14.5455C11.615 14.5455 14.5455 11.615 14.5455 8C14.5455 4.38505 11.615 1.45455 8 1.45455ZM0 8C0 3.58172 3.58172 0 8 0C12.4183 0 16 3.58172 16 8C16 12.4183 12.4183 16 8 16C3.58172 16 0 12.4183 0 8Z" fill="#3BB9FF"/>
<path fill-rule="evenodd" clip-rule="evenodd" d="M8 2.90909C8.40166 2.90909 8.72727 3.2347 8.72727 3.63636V7.69875L10.6961 9.66756C10.9801 9.95158 10.9801 10.4121 10.6961 10.6961C10.4121 10.9801 9.95158 10.9801 9.66756 10.6961L7.48574 8.51426C7.34935 8.37787 7.27273 8.19288 7.27273 8V3.63636C7.27273 3.2347 7.59834 2.90909 8 2.90909Z" fill="#3BB9FF"/>
</svg>
