<svg width="123" height="31" viewBox="0 0 123 31" fill="none" xmlns="http://www.w3.org/2000/svg">
<g clip-path="url(#clip0_437_1632)">
<path d="M4.58821 29.1897L4.97189 27.8731C3.37538 27.7634 2.14766 27.3189 1.28838 26.5401C0.429458 25.7613 0 24.7627 0 23.5447C0 21.8552 0.673215 20.4588 2.01965 19.3561C3.36608 18.2533 5.14234 17.7021 7.34768 17.7021H8.02425L8.33499 16.6816H11.899L11.5887 17.7351C13.209 17.8341 14.4613 18.2615 15.3448 19.0188C16.2282 19.7757 16.67 20.7524 16.67 21.9482C16.67 23.66 15.9934 25.0808 14.641 26.2106C13.2883 27.3408 11.515 27.9057 9.32155 27.9057H8.53558L8.15152 29.1894H4.58821V29.1897ZM5.81257 25.0752L7.18357 20.533H6.90929C5.97074 20.533 5.19704 20.7717 4.58821 21.2491C3.97863 21.7262 3.67421 22.3763 3.67421 23.1992C3.67421 23.7478 3.86624 24.1841 4.24993 24.5077C4.63361 24.8313 5.15462 25.0204 5.81257 25.0752ZM9.37738 25.0752H9.76106C10.6873 25.0752 11.4581 24.8395 12.0732 24.3676C12.6887 23.8961 12.9961 23.2482 12.9961 22.4256C12.9961 21.877 12.7952 21.4382 12.3933 21.109C11.991 20.7798 11.4428 20.5934 10.7476 20.5496L9.37738 25.0752Z" fill="#608FF7"/>
<path d="M16.5425 28.6954L19.9793 17.1748H23.4704L21.5512 23.6594L28.4244 17.1748H31.7332L28.3146 28.6954H24.8049L26.7244 22.2108L19.8512 28.6954H16.5425Z" fill="#608FF7"/>
<path d="M29.0635 30.9995L30.5625 25.8975H31.6045C32.3477 24.9979 32.9814 24.0516 33.5054 23.0585C34.0294 22.0659 34.5843 20.5817 35.1689 18.6067L35.5895 17.1748H45.515L42.9193 25.8975H44.3632L42.444 30.9995H39.4464L40.1408 28.6954H33.1578L32.2256 30.9995H29.0635ZM35.4064 25.8975H39.3731L41.1828 19.8904H38.2217L37.838 21.0261C37.1674 23.023 36.3568 24.6469 35.4064 25.8975Z" fill="#608FF7"/>
<path d="M43.3213 28.6954L50.1026 21.7008L47.2694 17.1748H51.1446L53.7585 21.9476L55.1846 17.1748H58.7308L57.3598 21.816L62.5148 17.1748H66.9203L60.9797 22.1448L63.5933 28.695H59.6448L57.9995 24.3667L56.1533 25.8479L55.3126 28.695H51.7664L52.6804 25.6173L51.8394 24.284L47.8544 28.6954H43.3213Z" fill="#608FF7"/>
<path d="M64.7261 28.6954L68.1629 17.1748H71.654L69.7344 23.6594L76.6076 17.1748H79.9164L76.4979 28.6954H72.9881L74.9077 22.2108L68.0345 28.6954H64.7261Z" fill="#608FF7"/>
<path d="M79.5195 28.6954L82.8588 17.5039H88.099C89.2359 17.5039 90.1418 17.7308 90.8165 18.1845C91.4904 18.6378 91.8276 19.2594 91.8276 20.0497C91.8276 20.8252 91.5232 21.4616 90.9136 21.9591C90.3044 22.4565 89.5125 22.7931 88.5374 22.9684C89.2356 23.1148 89.8087 23.4003 90.2553 23.8243C90.7018 24.2487 90.9255 24.7755 90.9255 25.4045C90.9255 26.3697 90.4585 27.16 89.5244 27.7742C88.5899 28.3888 87.3268 28.6957 85.7344 28.6957H79.5195V28.6954ZM80.9821 27.7297H85.6373C86.8721 27.7297 87.8508 27.5177 88.5743 27.0937C89.2974 26.6696 89.6587 26.0843 89.6587 25.3381C89.6587 24.7384 89.3662 24.2702 88.7816 23.9337C88.1962 23.5974 87.4411 23.4288 86.5148 23.4288H82.2742L80.9821 27.7297ZM82.5421 22.5073H86.539C87.7414 22.5073 88.7082 22.2916 89.4391 21.8597C90.1704 21.4286 90.5359 20.8541 90.5359 20.1372C90.5359 19.0255 89.6345 18.4695 87.8311 18.4695H83.7609L82.5421 22.5073Z" fill="#608FF7"/>
<path d="M99.6758 28.959C98.083 28.959 96.7835 28.5201 95.776 27.6424C94.7683 26.765 94.2651 25.6385 94.2651 24.2629C94.2651 22.4637 94.9718 20.8434 96.3856 19.4026C97.799 17.9618 99.4886 17.2412 101.455 17.2412C102.95 17.2412 104.107 17.6508 104.928 18.47C105.748 19.2896 106.159 20.3063 106.159 21.5203C106.159 22.2372 106.045 22.8881 105.818 23.4734H95.6056C95.5729 23.7955 95.5565 24.0439 95.5565 24.2196C95.5565 25.346 95.9383 26.2494 96.7023 26.9296C97.4656 27.6101 98.457 27.95 99.6758 27.95C101.154 27.95 102.567 27.453 103.916 26.4577L104.623 27.2257C103.079 28.3815 101.431 28.959 99.6758 28.959ZM95.8248 22.5078H104.843C104.908 22.2442 104.94 21.9373 104.94 21.5863C104.94 20.6207 104.644 19.8196 104.051 19.1832C103.458 18.5471 102.584 18.2287 101.431 18.2287C100.099 18.2287 98.9244 18.6383 97.9088 19.4575C96.8929 20.277 96.1984 21.2934 95.8248 22.5078Z" fill="#608FF7"/>
<path d="M116.054 17.5921C117.711 17.5921 119.047 18.031 120.063 18.9087C121.078 19.7865 121.586 20.9352 121.586 22.3538C121.586 24.08 120.834 25.6124 119.332 26.9509C117.828 28.2894 116.176 28.9589 114.372 28.9589C112.552 28.9589 111.167 28.4981 110.217 27.5766C109.266 26.6551 108.791 25.4627 108.791 23.9996C108.791 23.3268 108.855 22.6281 108.986 21.9038C109.115 21.1799 109.347 20.4115 109.68 19.5997C110.013 18.7879 110.424 18.0495 110.911 17.3834C111.398 16.7177 112.032 16.1253 112.812 15.606C113.592 15.0871 114.469 14.732 115.444 14.5418L122.732 13.1377L122.999 14.1029L115.81 15.5512C114.461 15.8292 113.397 16.3047 112.617 16.9775C111.837 17.6507 111.227 18.5944 110.789 19.8084H110.886C112.3 18.3309 114.022 17.5921 116.054 17.5921ZM115.883 18.5577C114.323 18.5577 112.962 19.1026 111.8 20.1924C110.639 21.2822 110.058 22.5733 110.058 24.0656C110.058 25.1921 110.427 26.121 111.167 26.8523C111.906 27.584 112.974 27.9495 114.371 27.9495C115.834 27.9495 117.182 27.3757 118.417 26.227C119.652 25.0786 120.27 23.7728 120.27 22.3101C120.27 21.1547 119.883 20.2402 119.112 19.5671C118.34 18.8943 117.264 18.5577 115.883 18.5577Z" fill="#608FF7"/>
<path d="M1.39258 5.98193C1.39258 4.80466 1.77998 3.82496 2.55405 3.04172C3.32775 2.2596 4.31022 1.86816 5.49997 1.86816C6.72843 1.86816 7.71202 2.22142 8.4511 2.9283L7.87948 3.77159C7.58214 3.50544 7.22153 3.29267 6.79802 3.13291C6.37563 2.97389 5.95734 2.89382 5.54649 2.89382C4.63101 2.89382 3.90495 3.18629 3.36682 3.77159C2.82795 4.35651 2.56038 5.08934 2.56038 5.97044C2.56038 6.85932 2.83465 7.61142 3.3832 8.22711C3.93286 8.84206 4.66041 9.14972 5.56807 9.14972C6.01874 9.14972 6.46309 9.05668 6.90073 8.8706C7.33987 8.68453 7.72355 8.42802 8.05067 8.10108L8.65727 8.91027C7.80356 9.76134 6.76192 10.1865 5.53495 10.1865C4.30649 10.1865 3.30988 9.78654 2.54251 8.98403C1.77626 8.18337 1.39258 7.18255 1.39258 5.98193Z" fill="white"/>
<path d="M10.3389 10.0506L13.2334 2.00586H14.4347L17.3293 10.0506H16.1626L15.3502 7.73762H12.3075L11.4951 10.0506H10.3389ZM12.6049 6.80278H15.0525L14.1601 4.26216L13.8397 3.11122H13.8166C13.7035 3.59717 13.6004 3.98119 13.5077 4.26216L12.6049 6.80278Z" fill="white"/>
<path d="M19.708 10.0501V2.00499H20.8412V7.2241L20.7731 8.39766H20.7951C21.063 7.89614 21.2908 7.50174 21.4828 7.21261L25.0636 2.00499H26.1722V10.0498H25.052V4.83065L25.1201 3.65709H25.0971C24.8384 4.14304 24.6129 4.53448 24.4224 4.83065L20.8185 10.0498H19.708V10.0501ZM22.9796 1.62949C22.5147 1.62949 22.1169 1.4979 21.7846 1.23658C21.4523 0.974136 21.2863 0.619029 21.2863 0.170882V0H22.1798V0.15902C22.1798 0.395141 22.2598 0.578996 22.4195 0.711698C22.5791 0.845141 22.7671 0.911121 22.9796 0.911121C23.201 0.911121 23.3915 0.845141 23.5527 0.711698C23.7123 0.578996 23.7923 0.391063 23.7923 0.1479V0H24.6732V0.170511C24.6732 0.618658 24.5098 0.974136 24.1812 1.2362C23.8537 1.4979 23.4533 1.62949 22.9796 1.62949Z" fill="white"/>
<path d="M31.3424 10.05V2.98495H28.5625V2.00488H35.2437V2.98458H32.4637V10.0497H31.3424V10.05Z" fill="white"/>
<path d="M41.6392 10.05V2.00488H44.6029C45.3498 2.00488 45.9576 2.23507 46.4276 2.69434C46.8961 3.15398 47.1306 3.76374 47.1306 4.52326C47.1306 5.28314 46.895 5.89883 46.4213 6.36922C45.9486 6.84035 45.3424 7.07573 44.6033 7.07573H42.7723V10.0497H41.6392V10.05ZM42.772 6.09603H44.4187C44.9003 6.09603 45.2814 5.95555 45.5635 5.6742C45.8455 5.39323 45.987 5.00995 45.987 4.52326C45.987 4.04471 45.8478 3.66922 45.5687 3.39529C45.2907 3.1221 44.9107 2.98495 44.4306 2.98495H42.7723V6.09603H42.772Z" fill="white"/>
<path d="M48.377 10.0506L51.2715 2.00586H52.4728L55.3674 10.0506H54.2007L53.3883 7.73762H50.3456L49.5332 10.0506H48.377ZM50.643 6.80278H53.0906L52.1982 4.26216L51.8777 3.11122H51.8547C51.7415 3.59717 51.6385 3.98119 51.5458 4.26216L50.643 6.80278Z" fill="white"/>
<path d="M56.9917 9.09288L57.6214 8.32965C57.8491 8.57282 58.1338 8.77409 58.4736 8.93385C58.8122 9.09287 59.1613 9.17294 59.5204 9.17294C60.0225 9.17294 60.4296 9.04135 60.7385 8.78002C61.0474 8.51759 61.2022 8.16248 61.2022 7.71433C61.2022 7.30399 61.0619 6.97965 60.7839 6.74019C60.5059 6.50111 60.1416 6.38101 59.692 6.38101H58.6969V5.44691H59.4977C59.9097 5.44691 60.2547 5.32495 60.5331 5.08216C60.8114 4.83937 60.9502 4.528 60.9502 4.14806C60.9502 3.77627 60.8304 3.46824 60.5896 3.22544C60.35 2.98228 59.9934 2.8607 59.5208 2.8607C58.8565 2.8607 58.254 3.08829 57.7129 3.54423L57.2314 2.70094C57.9035 2.14678 58.72 1.86914 59.6805 1.86914C60.3898 1.86914 60.9707 2.06078 61.4251 2.44443C61.8784 2.82845 62.1061 3.35036 62.1061 4.01165C62.1061 4.83195 61.7161 5.43579 60.9383 5.82314V5.84612C61.3734 5.96733 61.7187 6.19752 61.9736 6.53558C62.2297 6.87364 62.3573 7.28583 62.3573 7.77179C62.3573 8.50091 62.0961 9.0862 61.5732 9.52694C61.0518 9.9673 60.3976 10.1875 59.6124 10.1875C59.1155 10.1875 58.634 10.0907 58.1651 9.89687C57.6951 9.70264 57.3047 9.43464 56.9917 9.09288Z" fill="white"/>
<path d="M65.1372 10.05V2.00488H68.101C68.8479 2.00488 69.4556 2.23507 69.9256 2.69434C70.3942 3.15398 70.6286 3.76374 70.6286 4.52326C70.6286 5.28314 70.3931 5.89883 69.9193 6.36922C69.4467 6.84035 68.8404 7.07573 68.1014 7.07573H66.2704V10.0497H65.1372V10.05ZM66.2704 6.09603H67.9172C68.3987 6.09603 68.7798 5.95555 69.0619 5.6742C69.344 5.39323 69.4854 5.00995 69.4854 4.52326C69.4854 4.04471 69.3462 3.66922 69.0671 3.39529C68.7891 3.1221 68.4091 2.98495 67.9291 2.98495H66.2708V6.09603H66.2704Z" fill="white"/>
<path d="M71.8745 10.0506L74.7691 2.00586H75.9704L78.8649 10.0506H77.6983L76.8859 7.73762H73.8432L73.0308 10.0506H71.8745ZM74.1409 6.80278H76.5885L75.6961 4.26216L75.3757 3.11122H75.3526C75.2395 3.59717 75.1364 3.98119 75.0437 4.26216L74.1409 6.80278Z" fill="white"/>
<path d="M81.2446 10.05V2.00488H86.0152V2.98458H82.3778V5.22939H84.1507C84.8757 5.22939 85.4666 5.44439 85.9236 5.87326C86.3821 6.30287 86.6099 6.89743 86.6099 7.65658C86.6099 8.37087 86.387 8.94801 85.9415 9.38838C85.4946 9.82948 84.9166 10.0497 84.2084 10.0497H81.2446V10.05ZM82.3774 9.07034H84.0242C84.4749 9.07034 84.8277 8.94468 85.0826 8.6941C85.339 8.44352 85.4663 8.09768 85.4663 7.65732C85.4663 7.21696 85.3349 6.86556 85.0711 6.60312C84.8083 6.34142 84.4518 6.2102 84.0022 6.2102H82.3774V9.07034Z" fill="white"/>
<path d="M88.8062 5.97007C88.8062 4.81578 89.2066 3.84313 90.0074 3.05322C90.8083 2.2633 91.7919 1.86816 92.9597 1.86816C94.1264 1.86816 95.1085 2.2633 95.9056 3.05322C96.7027 3.84313 97.1006 4.81615 97.1006 5.97007C97.1006 7.15512 96.7027 8.15409 95.9056 8.96735C95.1085 9.78061 94.1264 10.1865 92.9597 10.1865C91.7919 10.1865 90.8083 9.78061 90.0074 8.96735C89.2066 8.15409 88.8062 7.15512 88.8062 5.97007ZM89.9739 5.97007C89.9739 6.86636 90.2635 7.62069 90.8429 8.2323C91.4223 8.84355 92.1279 9.14935 92.9597 9.14935C93.7903 9.14935 94.4944 8.84355 95.0701 8.2323C95.6458 7.62069 95.9342 6.86636 95.9342 5.97007C95.9342 5.10454 95.6458 4.37468 95.0701 3.78234C94.4944 3.18999 93.7903 2.89345 92.9597 2.89345C92.1279 2.89345 91.4223 3.18962 90.8429 3.78234C90.2635 4.37505 89.9739 5.10454 89.9739 5.97007Z" fill="white"/>
<path d="M101.402 10.05V2.98495H98.6216V2.00488H105.303V2.98458H102.523V10.0497H101.402V10.05Z" fill="white"/>
<path d="M106.115 10.0506L109.009 2.00586H110.211L113.105 10.0506H111.938L111.126 7.73762H108.083L107.271 10.0506H106.115ZM108.381 6.80278H110.829L109.936 4.26216L109.616 3.11122H109.593C109.48 3.59717 109.377 3.98119 109.284 4.26216L108.381 6.80278Z" fill="white"/>
<path d="M115.484 10.05V2.00488H116.618V5.53742H120.816V2.00488H121.937V10.0497H120.816V6.51712H116.618V10.0497H115.484V10.05Z" fill="white"/>
</g>
<defs>
<clipPath id="clip0_437_1632">
<rect width="123" height="31" fill="white"/>
</clipPath>
</defs>
</svg>
