<svg width="123" height="31" viewBox="0 0 123 31" fill="none" xmlns="http://www.w3.org/2000/svg">
<g clip-path="url(#clip0_347_608)">
<path d="M4.58821 29.1897L4.97189 27.8731C3.37538 27.7634 2.14766 27.3189 1.28838 26.5401C0.429458 25.7613 0 24.7627 0 23.5447C0 21.8552 0.673215 20.4588 2.01965 19.3561C3.36608 18.2533 5.14234 17.7021 7.34768 17.7021H8.02425L8.33499 16.6816H11.899L11.5887 17.7351C13.209 17.8341 14.4613 18.2615 15.3448 19.0188C16.2282 19.7757 16.67 20.7524 16.67 21.9482C16.67 23.66 15.9934 25.0808 14.641 26.2106C13.2883 27.3408 11.515 27.9057 9.32155 27.9057H8.53558L8.15152 29.1894H4.58821V29.1897ZM5.81257 25.0752L7.18357 20.533H6.90929C5.97074 20.533 5.19704 20.7717 4.58821 21.2491C3.97863 21.7262 3.67421 22.3763 3.67421 23.1992C3.67421 23.7478 3.86624 24.1841 4.24993 24.5077C4.63361 24.8313 5.15462 25.0204 5.81257 25.0752ZM9.37738 25.0752H9.76106C10.6873 25.0752 11.4581 24.8395 12.0732 24.3676C12.6887 23.8961 12.9961 23.2482 12.9961 22.4256C12.9961 21.877 12.7952 21.4382 12.3933 21.109C11.991 20.7798 11.4428 20.5934 10.7476 20.5496L9.37738 25.0752Z" fill="#608FF7"/>
<path d="M16.542 28.6954L19.9788 17.1748H23.4699L21.5507 23.6594L28.4239 17.1748H31.7327L28.3141 28.6954H24.8044L26.7239 22.2108L19.8508 28.6954H16.542Z" fill="#608FF7"/>
<path d="M29.0635 30.9995L30.5625 25.8975H31.6045C32.3477 24.9979 32.9814 24.0516 33.5054 23.0585C34.0294 22.0659 34.5843 20.5817 35.1689 18.6067L35.5895 17.1748H45.515L42.9193 25.8975H44.3632L42.444 30.9995H39.4464L40.1408 28.6954H33.1578L32.2256 30.9995H29.0635ZM35.4064 25.8975H39.3731L41.1828 19.8904H38.2217L37.838 21.0261C37.1674 23.023 36.3568 24.6469 35.4064 25.8975Z" fill="#608FF7"/>
<path d="M43.3213 28.6954L50.1026 21.7008L47.2694 17.1748H51.1446L53.7585 21.9476L55.1846 17.1748H58.7308L57.3598 21.816L62.5148 17.1748H66.9203L60.9797 22.1448L63.5933 28.695H59.6448L57.9995 24.3667L56.1533 25.8479L55.3126 28.695H51.7664L52.6804 25.6173L51.8394 24.284L47.8544 28.6954H43.3213Z" fill="#608FF7"/>
<path d="M64.7266 28.6954L68.1633 17.1748H71.6545L69.7349 23.6594L76.6081 17.1748H79.9169L76.4983 28.6954H72.9886L74.9082 22.2108L68.035 28.6954H64.7266Z" fill="#608FF7"/>
<path d="M79.5195 28.6954L82.8588 17.5039H88.099C89.2359 17.5039 90.1418 17.7308 90.8165 18.1845C91.4904 18.6378 91.8276 19.2594 91.8276 20.0497C91.8276 20.8252 91.5232 21.4616 90.9136 21.9591C90.3044 22.4565 89.5125 22.7931 88.5374 22.9684C89.2356 23.1148 89.8087 23.4003 90.2553 23.8243C90.7018 24.2487 90.9255 24.7755 90.9255 25.4045C90.9255 26.3697 90.4585 27.16 89.5244 27.7742C88.5899 28.3888 87.3268 28.6957 85.7344 28.6957H79.5195V28.6954ZM80.9821 27.7297H85.6373C86.8721 27.7297 87.8508 27.5177 88.5743 27.0937C89.2974 26.6696 89.6587 26.0843 89.6587 25.3381C89.6587 24.7384 89.3662 24.2702 88.7816 23.9337C88.1962 23.5974 87.4411 23.4288 86.5148 23.4288H82.2742L80.9821 27.7297ZM82.5421 22.5073H86.539C87.7414 22.5073 88.7082 22.2916 89.4391 21.8597C90.1704 21.4286 90.5359 20.8541 90.5359 20.1372C90.5359 19.0255 89.6345 18.4695 87.8311 18.4695H83.7609L82.5421 22.5073Z" fill="#608FF7"/>
<path d="M99.6753 28.959C98.0825 28.959 96.783 28.5201 95.7756 27.6424C94.7678 26.765 94.2646 25.6385 94.2646 24.2629C94.2646 22.4637 94.9713 20.8434 96.3851 19.4026C97.7986 17.9618 99.4881 17.2412 101.455 17.2412C102.949 17.2412 104.107 17.6508 104.927 18.47C105.748 19.2896 106.158 20.3063 106.158 21.5203C106.158 22.2372 106.044 22.8881 105.817 23.4734H95.6051C95.5724 23.7955 95.556 24.0439 95.556 24.2196C95.556 25.346 95.9378 26.2494 96.7018 26.9296C97.4651 27.6101 98.4565 27.95 99.6753 27.95C101.153 27.95 102.567 27.453 103.916 26.4577L104.623 27.2257C103.079 28.3815 101.43 28.959 99.6753 28.959ZM95.8243 22.5078H104.843C104.907 22.2442 104.94 21.9373 104.94 21.5863C104.94 20.6207 104.643 19.8196 104.05 19.1832C103.457 18.5471 102.584 18.2287 101.43 18.2287C100.098 18.2287 98.9239 18.6383 97.9083 19.4575C96.8924 20.277 96.198 21.2934 95.8243 22.5078Z" fill="#608FF7"/>
<path d="M116.054 17.5921C117.711 17.5921 119.047 18.031 120.063 18.9087C121.079 19.7865 121.587 20.9352 121.587 22.3538C121.587 24.08 120.835 25.6124 119.332 26.9509C117.829 28.2894 116.176 28.9589 114.372 28.9589C112.553 28.9589 111.168 28.4981 110.217 27.5766C109.267 26.6551 108.791 25.4627 108.791 23.9996C108.791 23.3268 108.856 22.6281 108.986 21.9038C109.116 21.1799 109.348 20.4115 109.681 19.5997C110.014 18.7879 110.424 18.0495 110.912 17.3834C111.399 16.7177 112.032 16.1253 112.812 15.606C113.592 15.0871 114.47 14.732 115.445 14.5418L122.732 13.1377L123 14.1029L115.81 15.5512C114.461 15.8292 113.397 16.3047 112.617 16.9775C111.837 17.6507 111.228 18.5944 110.789 19.8084H110.887C112.3 18.3309 114.023 17.5921 116.054 17.5921ZM115.883 18.5577C114.323 18.5577 112.962 19.1026 111.801 20.1924C110.639 21.2822 110.058 22.5733 110.058 24.0656C110.058 25.1921 110.427 26.121 111.167 26.8523C111.906 27.584 112.974 27.9495 114.372 27.9495C115.834 27.9495 117.183 27.3757 118.418 26.227C119.653 25.0786 120.27 23.7728 120.27 22.3101C120.27 21.1547 119.884 20.2402 119.113 19.5671C118.341 18.8943 117.264 18.5577 115.883 18.5577Z" fill="#608FF7"/>
<path d="M1.39258 5.98193C1.39258 4.80466 1.77998 3.82496 2.55405 3.04172C3.32775 2.2596 4.31022 1.86816 5.49997 1.86816C6.72843 1.86816 7.71202 2.22142 8.4511 2.9283L7.87948 3.77159C7.58214 3.50544 7.22153 3.29267 6.79802 3.13291C6.37563 2.97389 5.95734 2.89382 5.54649 2.89382C4.63101 2.89382 3.90495 3.18629 3.36682 3.77159C2.82795 4.35651 2.56038 5.08934 2.56038 5.97044C2.56038 6.85932 2.83465 7.61142 3.3832 8.22711C3.93286 8.84206 4.66041 9.14972 5.56807 9.14972C6.01874 9.14972 6.46309 9.05668 6.90073 8.8706C7.33987 8.68453 7.72355 8.42802 8.05067 8.10108L8.65727 8.91027C7.80356 9.76134 6.76192 10.1865 5.53495 10.1865C4.30649 10.1865 3.30988 9.78654 2.54251 8.98403C1.77626 8.18337 1.39258 7.18255 1.39258 5.98193Z" fill="white"/>
<path d="M10.3389 10.0506L13.2334 2.00586H14.4347L17.3293 10.0506H16.1626L15.3502 7.73762H12.3075L11.4951 10.0506H10.3389ZM12.6049 6.80278H15.0525L14.1601 4.26216L13.8397 3.11122H13.8166C13.7035 3.59717 13.6004 3.98119 13.5077 4.26216L12.6049 6.80278Z" fill="white"/>
<path d="M19.708 10.0501V2.00499H20.8412V7.2241L20.7731 8.39766H20.7951C21.063 7.89614 21.2908 7.50174 21.4828 7.21261L25.0636 2.00499H26.1722V10.0498H25.052V4.83065L25.1201 3.65709H25.0971C24.8384 4.14304 24.6129 4.53448 24.4224 4.83065L20.8185 10.0498H19.708V10.0501ZM22.9796 1.62949C22.5147 1.62949 22.1169 1.4979 21.7846 1.23658C21.4523 0.974136 21.2863 0.619029 21.2863 0.170882V0H22.1798V0.15902C22.1798 0.395141 22.2598 0.578996 22.4195 0.711698C22.5791 0.845141 22.7671 0.911121 22.9796 0.911121C23.201 0.911121 23.3915 0.845141 23.5527 0.711698C23.7123 0.578996 23.7923 0.391063 23.7923 0.1479V0H24.6732V0.170511C24.6732 0.618658 24.5098 0.974136 24.1812 1.2362C23.8537 1.4979 23.4533 1.62949 22.9796 1.62949Z" fill="white"/>
<path d="M31.3424 10.05V2.98495H28.5625V2.00488H35.2437V2.98458H32.4637V10.0497H31.3424V10.05Z" fill="white"/>
<path d="M41.6396 10.05V2.00488H44.6034C45.3503 2.00488 45.958 2.23507 46.4281 2.69434C46.8966 3.15398 47.1311 3.76374 47.1311 4.52326C47.1311 5.28314 46.8955 5.89883 46.4217 6.36922C45.9491 6.84035 45.3429 7.07573 44.6038 7.07573H42.7728V10.0497H41.6396V10.05ZM42.7725 6.09603H44.4192C44.9008 6.09603 45.2819 5.95555 45.5639 5.6742C45.846 5.39323 45.9874 5.00995 45.9874 4.52326C45.9874 4.04471 45.8483 3.66922 45.5692 3.39529C45.2912 3.1221 44.9112 2.98495 44.4311 2.98495H42.7728V6.09603H42.7725Z" fill="white"/>
<path d="M48.377 10.0506L51.2715 2.00586H52.4728L55.3674 10.0506H54.2007L53.3883 7.73762H50.3456L49.5332 10.0506H48.377ZM50.643 6.80278H53.0906L52.1982 4.26216L51.8777 3.11122H51.8547C51.7415 3.59717 51.6385 3.98119 51.5458 4.26216L50.643 6.80278Z" fill="white"/>
<path d="M56.9922 9.09288L57.6219 8.32965C57.8496 8.57282 58.1343 8.77409 58.4741 8.93385C58.8127 9.09287 59.1618 9.17294 59.5209 9.17294C60.023 9.17294 60.4301 9.04135 60.739 8.78002C61.0479 8.51759 61.2027 8.16248 61.2027 7.71433C61.2027 7.30399 61.0624 6.97965 60.7844 6.74019C60.5064 6.50111 60.1421 6.38101 59.6925 6.38101H58.6974V5.44691H59.4982C59.9102 5.44691 60.2552 5.32495 60.5335 5.08216C60.8119 4.83937 60.9507 4.528 60.9507 4.14806C60.9507 3.77627 60.8309 3.46824 60.5901 3.22544C60.3505 2.98228 59.9939 2.8607 59.5213 2.8607C58.857 2.8607 58.2545 3.08829 57.7134 3.54423L57.2318 2.70094C57.9039 2.14678 58.7204 1.86914 59.681 1.86914C60.3903 1.86914 60.9712 2.06078 61.4256 2.44443C61.8789 2.82845 62.1066 3.35036 62.1066 4.01165C62.1066 4.83195 61.7166 5.43579 60.9388 5.82314V5.84612C61.3739 5.96733 61.7192 6.19752 61.9741 6.53558C62.2302 6.87364 62.3578 7.28583 62.3578 7.77179C62.3578 8.50091 62.0966 9.0862 61.5737 9.52694C61.0523 9.9673 60.3981 10.1875 59.6129 10.1875C59.116 10.1875 58.6345 10.0907 58.1656 9.89687C57.6955 9.70264 57.3052 9.43464 56.9922 9.09288Z" fill="white"/>
<path d="M65.1367 10.05V2.00488H68.1005C68.8474 2.00488 69.4551 2.23507 69.9251 2.69434C70.3937 3.15398 70.6281 3.76374 70.6281 4.52326C70.6281 5.28314 70.3926 5.89883 69.9188 6.36922C69.4462 6.84035 68.84 7.07573 68.1009 7.07573H66.2699V10.0497H65.1367V10.05ZM66.2699 6.09603H67.9167C68.3982 6.09603 68.7793 5.95555 69.0614 5.6742C69.3435 5.39323 69.4849 5.00995 69.4849 4.52326C69.4849 4.04471 69.3457 3.66922 69.0666 3.39529C68.7886 3.1221 68.4086 2.98495 67.9286 2.98495H66.2703V6.09603H66.2699Z" fill="white"/>
<path d="M71.875 10.0506L74.7696 2.00586H75.9709L78.8654 10.0506H77.6987L76.8863 7.73762H73.8437L73.0313 10.0506H71.875ZM74.1414 6.80278H76.589L75.6966 4.26216L75.3762 3.11122H75.3531C75.24 3.59717 75.1369 3.98119 75.0442 4.26216L74.1414 6.80278Z" fill="white"/>
<path d="M81.2451 10.05V2.00488H86.0157V2.98458H82.3783V5.22939H84.1512C84.8762 5.22939 85.4671 5.44439 85.9241 5.87326C86.3826 6.30287 86.6104 6.89743 86.6104 7.65658C86.6104 8.37087 86.3875 8.94801 85.942 9.38838C85.495 9.82948 84.9171 10.0497 84.2089 10.0497H81.2451V10.05ZM82.3779 9.07034H84.0247C84.4754 9.07034 84.8282 8.94468 85.0831 8.6941C85.3395 8.44352 85.4668 8.09768 85.4668 7.65732C85.4668 7.21696 85.3354 6.86556 85.0715 6.60312C84.8088 6.34142 84.4523 6.2102 84.0027 6.2102H82.3779V9.07034Z" fill="white"/>
<path d="M88.8066 5.97007C88.8066 4.81578 89.2071 3.84313 90.0079 3.05322C90.8088 2.2633 91.7924 1.86816 92.9602 1.86816C94.1268 1.86816 95.1089 2.2633 95.9061 3.05322C96.7032 3.84313 97.101 4.81615 97.101 5.97007C97.101 7.15512 96.7032 8.15409 95.9061 8.96735C95.1089 9.78061 94.1268 10.1865 92.9602 10.1865C91.7924 10.1865 90.8088 9.78061 90.0079 8.96735C89.2071 8.15409 88.8066 7.15512 88.8066 5.97007ZM89.9744 5.97007C89.9744 6.86636 90.264 7.62069 90.8434 8.2323C91.4228 8.84355 92.1284 9.14935 92.9602 9.14935C93.7908 9.14935 94.4949 8.84355 95.0706 8.2323C95.6463 7.62069 95.9347 6.86636 95.9347 5.97007C95.9347 5.10454 95.6463 4.37468 95.0706 3.78234C94.4949 3.18999 93.7908 2.89345 92.9602 2.89345C92.1284 2.89345 91.4228 3.18962 90.8434 3.78234C90.264 4.37505 89.9744 5.10454 89.9744 5.97007Z" fill="white"/>
<path d="M101.401 10.05V2.98495H98.6211V2.00488H105.302V2.98458H102.522V10.0497H101.401V10.05Z" fill="white"/>
<path d="M106.115 10.0506L109.01 2.00586H110.211L113.106 10.0506H111.939L111.127 7.73762H108.084L107.271 10.0506H106.115ZM108.382 6.80278H110.829L109.937 4.26216L109.616 3.11122H109.593C109.48 3.59717 109.377 3.98119 109.284 4.26216L108.382 6.80278Z" fill="white"/>
<path d="M115.484 10.05V2.00488H116.618V5.53742H120.816V2.00488H121.937V10.0497H120.816V6.51712H116.618V10.0497H115.484V10.05Z" fill="white"/>
</g>
<defs>
<clipPath id="clip0_347_608">
<rect width="123" height="31" fill="white"/>
</clipPath>
</defs>
</svg>
