<svg width="123" height="31" viewBox="0 0 123 31" fill="none" xmlns="http://www.w3.org/2000/svg">
<g clip-path="url(#clip0_443_1881)">
<path d="M4.58821 29.1896L4.97189 27.873C3.37538 27.7633 2.14766 27.3188 1.28838 26.54C0.429458 25.7613 0 24.7627 0 23.5446C0 21.8551 0.673215 20.4587 2.01965 19.356C3.36608 18.2532 5.14234 17.702 7.34768 17.702H8.02425L8.33499 16.6815H11.899L11.5887 17.735C13.209 17.834 14.4613 18.2614 15.3448 19.0187C16.2282 19.7756 16.67 20.7523 16.67 21.9481C16.67 23.6599 15.9934 25.0807 14.641 26.2105C13.2883 27.3407 11.515 27.9056 9.32155 27.9056H8.53558L8.15152 29.1893H4.58821V29.1896ZM5.81257 25.0751L7.18357 20.5329H6.90929C5.97074 20.5329 5.19704 20.7716 4.58821 21.249C3.97863 21.7261 3.67421 22.3762 3.67421 23.1991C3.67421 23.7477 3.86624 24.184 4.24993 24.5076C4.63361 24.8312 5.15462 25.0203 5.81257 25.0751ZM9.37738 25.0751H9.76106C10.6873 25.0751 11.4581 24.8394 12.0732 24.3675C12.6887 23.896 12.9961 23.2481 12.9961 22.4255C12.9961 21.8769 12.7952 21.4381 12.3933 21.1089C11.991 20.7797 11.4428 20.5933 10.7476 20.5496L9.37738 25.0751Z" fill="#608FF7"/>
<path d="M16.543 28.6959L19.9798 17.1753H23.4709L21.5517 23.6599L28.4249 17.1753H31.7337L28.3151 28.6959H24.8054L26.7249 22.2113L19.8517 28.6959H16.543Z" fill="#608FF7"/>
<path d="M29.0625 31L30.5615 25.8981H31.6035C32.3467 24.9984 32.9805 24.0521 33.5045 23.0591C34.0284 22.0664 34.5833 20.5822 35.168 18.6072L35.5885 17.1753H45.514L42.9183 25.8981H44.3622L42.4431 31H39.4454L40.1398 28.6959H33.1569L32.2246 31H29.0625ZM35.4054 25.8981H39.3721L41.1819 19.8909H38.2207L37.837 21.0266C37.1664 23.0235 36.3558 24.6474 35.4054 25.8981Z" fill="#608FF7"/>
<path d="M43.3203 28.6959L50.1016 21.7013L47.2684 17.1753H51.1436L53.7576 21.9481L55.1836 17.1753H58.7298L57.3588 21.8166L62.5138 17.1753H66.9193L60.9787 22.1453L63.5923 28.6956H59.6438L57.9986 24.3672L56.1523 25.8484L55.3117 28.6956H51.7655L52.6795 25.6178L51.8384 24.2845L47.8534 28.6959H43.3203Z" fill="#608FF7"/>
<path d="M64.7266 28.6959L68.1633 17.1753H71.6545L69.7349 23.6599L76.6081 17.1753H79.9169L76.4983 28.6959H72.9886L74.9082 22.2113L68.035 28.6959H64.7266Z" fill="#608FF7"/>
<path d="M79.5195 28.6961L82.8588 17.5047H88.099C89.2359 17.5047 90.1418 17.7315 90.8165 18.1852C91.4904 18.6386 91.8276 19.2602 91.8276 20.0505C91.8276 20.8259 91.5232 21.4624 90.9136 21.9598C90.3044 22.4573 89.5125 22.7938 88.5374 22.9692C89.2356 23.1156 89.8087 23.401 90.2553 23.8251C90.7018 24.2495 90.9255 24.7762 90.9255 25.4053C90.9255 26.3705 90.4585 27.1608 89.5244 27.775C88.5899 28.3896 87.3268 28.6965 85.7344 28.6965H79.5195V28.6961ZM80.9821 27.7305H85.6373C86.8721 27.7305 87.8508 27.5185 88.5743 27.0944C89.2974 26.6704 89.6587 26.0851 89.6587 25.3389C89.6587 24.7392 89.3662 24.271 88.7816 23.9344C88.1962 23.5982 87.4411 23.4296 86.5148 23.4296H82.2742L80.9821 27.7305ZM82.5421 22.5081H86.539C87.7414 22.5081 88.7082 22.2923 89.4391 21.8605C90.1704 21.4294 90.5359 20.8548 90.5359 20.138C90.5359 19.0263 89.6345 18.4703 87.8311 18.4703H83.7609L82.5421 22.5081Z" fill="#608FF7"/>
<path d="M99.6763 28.9592C98.0835 28.9592 96.7839 28.5203 95.7765 27.6425C94.7688 26.7651 94.2656 25.6387 94.2656 24.2631C94.2656 22.4638 94.9723 20.8436 96.3861 19.4028C97.7995 17.962 99.4891 17.2414 101.456 17.2414C102.95 17.2414 104.108 17.651 104.928 18.4702C105.749 19.2897 106.159 20.3065 106.159 21.5204C106.159 22.2373 106.045 22.8882 105.818 23.4735H95.6061C95.5734 23.7957 95.557 24.044 95.557 24.2197C95.557 25.3462 95.9388 26.2495 96.7028 26.9297C97.4661 27.6103 98.4575 27.9502 99.6763 27.9502C101.154 27.9502 102.568 27.4531 103.917 26.4579L104.624 27.2259C103.08 28.3817 101.431 28.9592 99.6763 28.9592ZM95.8253 22.5079H104.844C104.908 22.2444 104.941 21.9375 104.941 21.5864C104.941 20.6208 104.644 19.8198 104.051 19.1833C103.458 18.5473 102.585 18.2288 101.431 18.2288C100.099 18.2288 98.9249 18.6384 97.9093 19.4576C96.8934 20.2772 96.1989 21.2936 95.8253 22.5079Z" fill="#608FF7"/>
<path d="M116.052 17.5924C117.709 17.5924 119.045 18.0313 120.061 18.909C121.077 19.7868 121.585 20.9355 121.585 22.3541C121.585 24.0803 120.833 25.6127 119.331 26.9512C117.827 28.2897 116.174 28.9592 114.371 28.9592C112.551 28.9592 111.166 28.4984 110.215 27.5769C109.265 26.6554 108.789 25.4629 108.789 23.9999C108.789 23.3271 108.854 22.6284 108.984 21.9041C109.114 21.1802 109.346 20.4117 109.679 19.6C110.012 18.7882 110.422 18.0498 110.91 17.3837C111.397 16.718 112.03 16.1256 112.81 15.6063C113.591 15.0874 114.468 14.7322 115.443 14.5421L122.73 13.138L122.998 14.1032L115.808 15.5514C114.459 15.8294 113.395 16.305 112.615 16.9778C111.835 17.6509 111.226 18.5947 110.787 19.8087H110.885C112.298 18.3311 114.021 17.5924 116.052 17.5924ZM115.881 18.558C114.321 18.558 112.96 19.1029 111.799 20.1927C110.637 21.2825 110.056 22.5735 110.056 24.0659C110.056 25.1924 110.425 26.1213 111.165 26.8526C111.904 27.5843 112.972 27.9498 114.37 27.9498C115.832 27.9498 117.181 27.376 118.416 26.2273C119.651 25.0789 120.268 23.773 120.268 22.3103C120.268 21.1549 119.882 20.2405 119.111 19.5673C118.339 18.8946 117.262 18.558 115.881 18.558Z" fill="#608FF7"/>
<path d="M1.39453 5.98196C1.39453 4.80469 1.78194 3.82499 2.556 3.04175C3.3297 2.25963 4.31217 1.86819 5.50192 1.86819C6.73038 1.86819 7.71397 2.22145 8.45305 2.92833L7.88144 3.77162C7.58409 3.50547 7.22348 3.2927 6.79997 3.13294C6.37759 2.97392 5.95929 2.89386 5.54844 2.89386C4.63296 2.89386 3.9069 3.18632 3.36877 3.77162C2.8299 4.35654 2.56233 5.08937 2.56233 5.97047C2.56233 6.85935 2.8366 7.61145 3.38515 8.22714C3.93481 8.84209 4.66236 9.14975 5.57003 9.14975C6.0207 9.14975 6.46504 9.05671 6.90269 8.87063C7.34182 8.68456 7.72551 8.42805 8.05262 8.10111L8.65922 8.9103C7.80552 9.76137 6.76388 10.1865 5.53691 10.1865C4.30845 10.1865 3.31184 9.78657 2.54447 8.98406C1.77822 8.1834 1.39453 7.18258 1.39453 5.98196Z" fill="white"/>
<path d="M10.3398 10.0502L13.2344 2.00537H14.4357L17.3303 10.0502H16.1636L15.3512 7.73713H12.3085L11.4961 10.0502H10.3398ZM12.6059 6.80229H15.0535L14.1611 4.26168L13.8406 3.11073H13.8176C13.7044 3.59668 13.6013 3.9807 13.5087 4.26168L12.6059 6.80229Z" fill="white"/>
<path d="M19.7109 10.0501V2.00499H20.8441V7.2241L20.776 8.39766H20.798C21.0659 7.89614 21.2937 7.50174 21.4857 7.21261L25.0665 2.00499H26.1751V10.0498H25.055V4.83065L25.1231 3.65709H25.1C24.8414 4.14304 24.6158 4.53448 24.4253 4.83065L20.8214 10.0498H19.7109V10.0501ZM22.9825 1.62949C22.5177 1.62949 22.1198 1.4979 21.7875 1.23658C21.4552 0.974136 21.2892 0.619029 21.2892 0.170882V0H22.1827V0.15902C22.1827 0.395141 22.2628 0.578996 22.4224 0.711698C22.5821 0.845141 22.77 0.911121 22.9825 0.911121C23.2039 0.911121 23.3945 0.845141 23.5556 0.711698C23.7152 0.578996 23.7953 0.391063 23.7953 0.1479V0H24.6761V0.170511C24.6761 0.618658 24.5128 0.974136 24.1841 1.2362C23.8567 1.4979 23.4562 1.62949 22.9825 1.62949Z" fill="white"/>
<path d="M31.3464 10.0501V2.98501H28.5664V2.00494H35.2476V2.98464H32.4676V10.0497H31.3464V10.0501Z" fill="white"/>
<path d="M41.6406 10.0501V2.00494H44.6044C45.3513 2.00494 45.959 2.23513 46.429 2.6944C46.8976 3.15404 47.132 3.7638 47.132 4.52332C47.132 5.2832 46.8965 5.89889 46.4227 6.36928C45.9501 6.84041 45.3439 7.07579 44.6048 7.07579H42.7738V10.0497H41.6406V10.0501ZM42.7734 6.09609H44.4202C44.9018 6.09609 45.2828 5.95561 45.5649 5.67427C45.847 5.39329 45.9884 5.01001 45.9884 4.52332C45.9884 4.04477 45.8492 3.66928 45.5701 3.39535C45.2921 3.12216 44.9122 2.98501 44.4321 2.98501H42.7738V6.09609H42.7734Z" fill="white"/>
<path d="M48.3789 10.0502L51.2735 2.00537H52.4748L55.3693 10.0502H54.2026L53.3902 7.73713H50.3476L49.5352 10.0502H48.3789ZM50.6449 6.80229H53.0925L52.2001 4.26168L51.8797 3.11073H51.8566C51.7435 3.59668 51.6404 3.9807 51.5477 4.26168L50.6449 6.80229Z" fill="white"/>
<path d="M56.9922 9.09269L57.6219 8.32947C57.8496 8.57263 58.1343 8.77391 58.4741 8.93367C58.8127 9.09269 59.1618 9.17276 59.5209 9.17276C60.023 9.17276 60.4301 9.04117 60.739 8.77984C61.0479 8.5174 61.2027 8.1623 61.2027 7.71415C61.2027 7.30381 61.0624 6.97947 60.7844 6.74001C60.5064 6.50093 60.1421 6.38083 59.6925 6.38083H58.6974V5.44672H59.4982C59.9102 5.44672 60.2552 5.32477 60.5335 5.08198C60.8119 4.83918 60.9507 4.52782 60.9507 4.14787C60.9507 3.77609 60.8309 3.46805 60.5901 3.22526C60.3505 2.9821 59.9939 2.86052 59.5213 2.86052C58.857 2.86052 58.2545 3.08811 57.7134 3.54404L57.2318 2.70075C57.9039 2.14659 58.7204 1.86896 59.681 1.86896C60.3903 1.86896 60.9712 2.0606 61.4256 2.44425C61.8789 2.82827 62.1066 3.35018 62.1066 4.01146C62.1066 4.83177 61.7166 5.4356 60.9388 5.82296V5.84594C61.3739 5.96715 61.7192 6.19734 61.9741 6.5354C62.2302 6.87345 62.3578 7.28565 62.3578 7.7716C62.3578 8.50072 62.0966 9.08602 61.5737 9.52675C61.0523 9.96712 60.3981 10.1873 59.6129 10.1873C59.116 10.1873 58.6345 10.0906 58.1656 9.89669C57.6955 9.70245 57.3052 9.43446 56.9922 9.09269Z" fill="white"/>
<path d="M65.1406 10.0501V2.00494H68.1044C68.8513 2.00494 69.459 2.23513 69.9291 2.6944C70.3976 3.15404 70.632 3.7638 70.632 4.52332C70.632 5.2832 70.3965 5.89889 69.9227 6.36928C69.4501 6.84041 68.8439 7.07579 68.1048 7.07579H66.2738V10.0497H65.1406V10.0501ZM66.2738 6.09609H67.9206C68.4021 6.09609 68.7832 5.95561 69.0653 5.67427C69.3474 5.39329 69.4888 5.01001 69.4888 4.52332C69.4888 4.04477 69.3496 3.66928 69.0705 3.39535C68.7925 3.12216 68.4125 2.98501 67.9325 2.98501H66.2742V6.09609H66.2738Z" fill="white"/>
<path d="M71.875 10.0502L74.7696 2.00537H75.9709L78.8654 10.0502H77.6987L76.8863 7.73713H73.8437L73.0313 10.0502H71.875ZM74.1414 6.80229H76.589L75.6966 4.26168L75.3762 3.11073H75.3531C75.24 3.59668 75.1369 3.9807 75.0442 4.26168L74.1414 6.80229Z" fill="white"/>
<path d="M81.2461 10.0501V2.00494H86.0167V2.98464H82.3793V5.22945H84.1522C84.8771 5.22945 85.4681 5.44445 85.9251 5.87332C86.3836 6.30293 86.6113 6.8975 86.6113 7.65664C86.6113 8.37093 86.3884 8.94807 85.943 9.38844C85.496 9.82954 84.9181 10.0497 84.2099 10.0497H81.2461V10.0501ZM82.3789 9.0704H84.0257C84.4763 9.0704 84.8291 8.94474 85.0841 8.69416C85.3405 8.44358 85.4677 8.09774 85.4677 7.65738C85.4677 7.21702 85.3364 6.86562 85.0725 6.60318C84.8098 6.34148 84.4533 6.21026 84.0037 6.21026H82.3789V9.0704Z" fill="white"/>
<path d="M88.8086 5.97046C88.8086 4.81618 89.209 3.84352 90.0099 3.05361C90.8107 2.2637 91.7943 1.86856 92.9621 1.86856C94.1288 1.86856 95.1109 2.2637 95.908 3.05361C96.7052 3.84352 97.103 4.81655 97.103 5.97046C97.103 7.15551 96.7052 8.15449 95.908 8.96775C95.1109 9.78101 94.1288 10.1869 92.9621 10.1869C91.7943 10.1869 90.8107 9.78101 90.0099 8.96775C89.209 8.15449 88.8086 7.15551 88.8086 5.97046ZM89.9764 5.97046C89.9764 6.86676 90.2659 7.62108 90.8453 8.2327C91.4248 8.84394 92.1304 9.14975 92.9621 9.14975C93.7927 9.14975 94.4969 8.84394 95.0726 8.2327C95.6483 7.62108 95.9367 6.86676 95.9367 5.97046C95.9367 5.10493 95.6483 4.37507 95.0726 3.78273C94.4969 3.19039 93.7927 2.89385 92.9621 2.89385C92.1304 2.89385 91.4248 3.19002 90.8453 3.78273C90.2659 4.37544 89.9764 5.10493 89.9764 5.97046Z" fill="white"/>
<path d="M101.405 10.0501V2.98501H98.625V2.00494H105.306V2.98464H102.526V10.0497H101.405V10.0501Z" fill="white"/>
<path d="M106.117 10.0502L109.012 2.00537H110.213L113.108 10.0502H111.941L111.129 7.73713H108.086L107.273 10.0502H106.117ZM108.384 6.80229H110.831L109.939 4.26168L109.618 3.11073H109.595C109.482 3.59668 109.379 3.9807 109.286 4.26168L108.384 6.80229Z" fill="white"/>
<path d="M115.488 10.0501V2.00494H116.621V5.53749H120.82V2.00494H121.941V10.0497H120.82V6.51718H116.621V10.0497H115.488V10.0501Z" fill="white"/>
</g>
<defs>
<clipPath id="clip0_443_1881">
<rect width="123" height="31" fill="white"/>
</clipPath>
</defs>
</svg>
