<svg width="123" height="31" viewBox="0 0 123 31" fill="none" xmlns="http://www.w3.org/2000/svg">
<g clip-path="url(#clip0_437_886)">
<path d="M4.58821 29.1897L4.97189 27.8731C3.37538 27.7634 2.14766 27.3189 1.28838 26.5401C0.429458 25.7613 0 24.7627 0 23.5447C0 21.8552 0.673215 20.4588 2.01965 19.3561C3.36608 18.2533 5.14234 17.7021 7.34768 17.7021H8.02425L8.33499 16.6816H11.899L11.5887 17.7351C13.209 17.8341 14.4613 18.2615 15.3448 19.0188C16.2282 19.7757 16.67 20.7524 16.67 21.9482C16.67 23.66 15.9934 25.0808 14.641 26.2106C13.2883 27.3408 11.515 27.9057 9.32155 27.9057H8.53558L8.15152 29.1894H4.58821V29.1897ZM5.81257 25.0752L7.18357 20.533H6.90929C5.97074 20.533 5.19704 20.7717 4.58821 21.2491C3.97863 21.7262 3.67421 22.3763 3.67421 23.1992C3.67421 23.7478 3.86624 24.1841 4.24993 24.5077C4.63361 24.8313 5.15462 25.0204 5.81257 25.0752ZM9.37738 25.0752H9.76106C10.6873 25.0752 11.4581 24.8395 12.0732 24.3676C12.6887 23.8961 12.9961 23.2482 12.9961 22.4256C12.9961 21.877 12.7952 21.4382 12.3933 21.109C11.991 20.7798 11.4428 20.5934 10.7476 20.5496L9.37738 25.0752Z" fill="#608FF7"/>
<path d="M16.5424 28.6959L19.9791 17.1753H23.4703L21.5511 23.6599L28.4243 17.1753H31.733L28.3145 28.6959H24.8048L26.7243 22.2113L19.8511 28.6959H16.5424Z" fill="#608FF7"/>
<path d="M29.0636 31L30.5626 25.898H31.6046C32.3478 24.9984 32.9816 24.0521 33.5056 23.059C34.0295 22.0664 34.5844 20.5822 35.1691 18.6072L35.5896 17.1753H45.5151L42.9194 25.898H44.3633L42.4442 31H39.4465L40.1409 28.6959H33.158L32.2257 31H29.0636ZM35.4065 25.898H39.3732L41.183 19.8909H38.2218L37.8381 21.0266C37.1675 23.0234 36.3569 24.6474 35.4065 25.898Z" fill="#608FF7"/>
<path d="M43.3214 28.6959L50.1027 21.7012L47.2695 17.1753H51.1447L53.7587 21.9481L55.1847 17.1753H58.7309L57.3599 21.8165L62.5149 17.1753H66.9204L60.9798 22.1453L63.5934 28.6955H59.6449L57.9997 24.3671L56.1534 25.8484L55.3128 28.6955H51.7666L52.6806 25.6178L51.8395 24.2845L47.8545 28.6959H43.3214Z" fill="#608FF7"/>
<path d="M64.7261 28.6959L68.1629 17.1753H71.654L69.7344 23.6599L76.6076 17.1753H79.9164L76.4979 28.6959H72.9881L74.9077 22.2113L68.0345 28.6959H64.7261Z" fill="#608FF7"/>
<path d="M79.5198 28.6963L82.8591 17.5049H88.0993C89.2362 17.5049 90.142 17.7317 90.8167 18.1854C91.4907 18.6388 91.8278 19.2604 91.8278 20.0507C91.8278 20.8261 91.5234 21.4626 90.9138 21.96C90.3046 22.4575 89.5127 22.7941 88.5377 22.9694C89.2358 23.1158 89.8089 23.4012 90.2555 23.8253C90.7021 24.2497 90.9257 24.7764 90.9257 25.4055C90.9257 26.3707 90.4587 27.161 89.5246 27.7752C88.5901 28.3898 87.3271 28.6967 85.7347 28.6967H79.5198V28.6963ZM80.9823 27.7307H85.6375C86.8723 27.7307 87.8511 27.5187 88.5745 27.0946C89.2976 26.6706 89.659 26.0853 89.659 25.3391C89.659 24.7394 89.3664 24.2712 88.7818 23.9346C88.1964 23.5984 87.4413 23.4298 86.515 23.4298H82.2744L80.9823 27.7307ZM82.5424 22.5083H86.5392C87.7416 22.5083 88.7085 22.2925 89.4394 21.8607C90.1707 21.4296 90.5361 20.8551 90.5361 20.1382C90.5361 19.0265 89.6348 18.4705 87.8313 18.4705H83.7611L82.5424 22.5083Z" fill="#608FF7"/>
<path d="M99.6757 28.9595C98.0829 28.9595 96.7833 28.5206 95.7759 27.6429C94.7682 26.7655 94.265 25.639 94.265 24.2634C94.265 22.4642 94.9717 20.8439 96.3855 19.4031C97.7989 17.9623 99.4885 17.2417 101.455 17.2417C102.95 17.2417 104.107 17.6513 104.928 18.4705C105.748 19.2901 106.158 20.3068 106.158 21.5208C106.158 22.2377 106.045 22.8886 105.818 23.4739H95.6055C95.5727 23.796 95.5564 24.0443 95.5564 24.22C95.5564 25.3465 95.9382 26.2499 96.7022 26.9301C97.4655 27.6106 98.4569 27.9505 99.6757 27.9505C101.154 27.9505 102.567 27.4535 103.916 26.4582L104.623 27.2262C103.079 28.382 101.431 28.9595 99.6757 28.9595ZM95.8247 22.5083H104.843C104.908 22.2447 104.94 21.9378 104.94 21.5868C104.94 20.6212 104.643 19.8201 104.051 19.1837C103.457 18.5476 102.584 18.2292 101.431 18.2292C100.098 18.2292 98.9243 18.6388 97.9087 19.458C96.8927 20.2775 96.1983 21.2939 95.8247 22.5083Z" fill="#608FF7"/>
<path d="M116.054 17.5926C117.711 17.5926 119.047 18.0315 120.063 18.9092C121.078 19.787 121.586 20.9357 121.586 22.3543C121.586 24.0805 120.834 25.6129 119.332 26.9514C117.829 28.2899 116.176 28.9594 114.372 28.9594C112.552 28.9594 111.168 28.4986 110.217 27.5771C109.266 26.6556 108.791 25.4632 108.791 24.0001C108.791 23.3273 108.855 22.6286 108.986 21.9043C109.116 21.1804 109.347 20.412 109.68 19.6002C110.014 18.7884 110.424 18.05 110.911 17.3839C111.398 16.7182 112.032 16.1258 112.812 15.6065C113.592 15.0876 114.469 14.7325 115.444 14.5423L122.732 13.1382L123 14.1034L115.81 15.5517C114.461 15.8297 113.397 16.3052 112.617 16.978C111.837 17.6512 111.227 18.5949 110.789 19.8089H110.887C112.3 18.3314 114.022 17.5926 116.054 17.5926ZM115.883 18.5582C114.323 18.5582 112.962 19.1031 111.8 20.1929C110.639 21.2827 110.058 22.5737 110.058 24.0661C110.058 25.1926 110.427 26.1215 111.167 26.8528C111.906 27.5845 112.974 27.95 114.371 27.95C115.834 27.95 117.183 27.3762 118.417 26.2275C119.652 25.0791 120.27 23.7732 120.27 22.3106C120.27 21.1552 119.884 20.2407 119.112 19.5676C118.34 18.8948 117.264 18.5582 115.883 18.5582Z" fill="#608FF7"/>
<path d="M1.39258 5.98193C1.39258 4.80466 1.77998 3.82496 2.55405 3.04172C3.32775 2.2596 4.31022 1.86816 5.49997 1.86816C6.72843 1.86816 7.71202 2.22142 8.4511 2.9283L7.87948 3.77159C7.58214 3.50544 7.22153 3.29267 6.79802 3.13291C6.37563 2.97389 5.95734 2.89382 5.54649 2.89382C4.63101 2.89382 3.90495 3.18629 3.36682 3.77159C2.82795 4.35651 2.56038 5.08934 2.56038 5.97044C2.56038 6.85932 2.83465 7.61142 3.3832 8.22711C3.93286 8.84206 4.66041 9.14972 5.56807 9.14972C6.01874 9.14972 6.46309 9.05668 6.90073 8.8706C7.33987 8.68453 7.72355 8.42802 8.05067 8.10108L8.65727 8.91027C7.80356 9.76134 6.76192 10.1865 5.53495 10.1865C4.30649 10.1865 3.30988 9.78654 2.54251 8.98403C1.77626 8.18337 1.39258 7.18255 1.39258 5.98193Z" fill="white"/>
<path d="M10.3386 10.0502L13.2332 2.00537H14.4345L17.329 10.0502H16.1624L15.35 7.73713H12.3073L11.4949 10.0502H10.3386ZM12.6046 6.80229H15.0522L14.1598 4.26168L13.8394 3.11073H13.8163C13.7032 3.59668 13.6001 3.9807 13.5075 4.26168L12.6046 6.80229Z" fill="white"/>
<path d="M19.7083 10.0501V2.00499H20.8414V7.2241L20.7733 8.39766H20.7953C21.0632 7.89614 21.291 7.50174 21.483 7.21261L25.0638 2.00499H26.1725V10.0498H25.0523V4.83065L25.1204 3.65709H25.0973C24.8387 4.14304 24.6132 4.53448 24.4226 4.83065L20.8187 10.0498H19.7083V10.0501ZM22.9798 1.62949C22.515 1.62949 22.1172 1.4979 21.7848 1.23658C21.4525 0.974136 21.2865 0.619029 21.2865 0.170882V0H22.1801V0.15902C22.1801 0.395141 22.2601 0.578996 22.4197 0.711698C22.5794 0.845141 22.7673 0.911121 22.9798 0.911121C23.2012 0.911121 23.3918 0.845141 23.5529 0.711698C23.7126 0.578996 23.7926 0.391063 23.7926 0.1479V0H24.6734V0.170511C24.6734 0.618658 24.5101 0.974136 24.1815 1.2362C23.854 1.4979 23.4535 1.62949 22.9798 1.62949Z" fill="white"/>
<path d="M31.3427 10.05V2.98495H28.5627V2.00488H35.2439V2.98458H32.464V10.0497H31.3427V10.05Z" fill="white"/>
<path d="M41.6393 10.05V2.00488H44.6031C45.35 2.00488 45.9577 2.23507 46.4277 2.69434C46.8962 3.15398 47.1307 3.76374 47.1307 4.52326C47.1307 5.28314 46.8951 5.89883 46.4214 6.36922C45.9488 6.84035 45.3425 7.07573 44.6034 7.07573H42.7725V10.0497H41.6393V10.05ZM42.7721 6.09603H44.4189C44.9004 6.09603 45.2815 5.95555 45.5636 5.6742C45.8457 5.39323 45.9871 5.00995 45.9871 4.52326C45.9871 4.04471 45.8479 3.66922 45.5688 3.39529C45.2908 3.1221 44.9108 2.98495 44.4308 2.98495H42.7725V6.09603H42.7721Z" fill="white"/>
<path d="M48.377 10.0502L51.2715 2.00537H52.4728L55.3674 10.0502H54.2007L53.3883 7.73713H50.3456L49.5332 10.0502H48.377ZM50.643 6.80229H53.0906L52.1982 4.26168L51.8777 3.11073H51.8547C51.7415 3.59668 51.6385 3.9807 51.5458 4.26168L50.643 6.80229Z" fill="white"/>
<path d="M56.9917 9.09288L57.6214 8.32965C57.8491 8.57282 58.1338 8.77409 58.4736 8.93385C58.8122 9.09287 59.1613 9.17294 59.5204 9.17294C60.0225 9.17294 60.4296 9.04135 60.7385 8.78002C61.0474 8.51759 61.2022 8.16248 61.2022 7.71433C61.2022 7.30399 61.0619 6.97965 60.7839 6.74019C60.5059 6.50111 60.1416 6.38101 59.692 6.38101H58.6969V5.44691H59.4977C59.9097 5.44691 60.2547 5.32495 60.5331 5.08216C60.8114 4.83937 60.9502 4.528 60.9502 4.14806C60.9502 3.77627 60.8304 3.46824 60.5896 3.22544C60.35 2.98228 59.9934 2.8607 59.5208 2.8607C58.8565 2.8607 58.254 3.08829 57.7129 3.54423L57.2314 2.70094C57.9035 2.14678 58.72 1.86914 59.6805 1.86914C60.3898 1.86914 60.9707 2.06078 61.4251 2.44443C61.8784 2.82845 62.1061 3.35036 62.1061 4.01165C62.1061 4.83195 61.7161 5.43579 60.9383 5.82314V5.84612C61.3734 5.96733 61.7187 6.19752 61.9736 6.53558C62.2297 6.87364 62.3573 7.28583 62.3573 7.77179C62.3573 8.50091 62.0961 9.0862 61.5732 9.52694C61.0518 9.9673 60.3976 10.1875 59.6124 10.1875C59.1155 10.1875 58.634 10.0907 58.1651 9.89687C57.6951 9.70264 57.3047 9.43464 56.9917 9.09288Z" fill="white"/>
<path d="M65.137 10.05V2.00488H68.1007C68.8476 2.00488 69.4554 2.23507 69.9254 2.69434C70.3939 3.15398 70.6284 3.76374 70.6284 4.52326C70.6284 5.28314 70.3928 5.89883 69.9191 6.36922C69.4464 6.84035 68.8402 7.07573 68.1011 7.07573H66.2702V10.0497H65.137V10.05ZM66.2702 6.09603H67.9169C68.3985 6.09603 68.7795 5.95555 69.0616 5.6742C69.3437 5.39323 69.4851 5.00995 69.4851 4.52326C69.4851 4.04471 69.346 3.66922 69.0668 3.39529C68.7888 3.1221 68.4089 2.98495 67.9288 2.98495H66.2705V6.09603H66.2702Z" fill="white"/>
<path d="M71.8748 10.0502L74.7693 2.00537H75.9706L78.8652 10.0502H77.6985L76.8861 7.73713H73.8434L73.031 10.0502H71.8748ZM74.1411 6.80229H76.5888L75.6963 4.26168L75.3759 3.11073H75.3529C75.2397 3.59668 75.1366 3.9807 75.044 4.26168L74.1411 6.80229Z" fill="white"/>
<path d="M81.2446 10.05V2.00488H86.0152V2.98458H82.3778V5.22939H84.1507C84.8757 5.22939 85.4666 5.44439 85.9236 5.87326C86.3821 6.30287 86.6099 6.89743 86.6099 7.65658C86.6099 8.37087 86.387 8.94801 85.9415 9.38838C85.4946 9.82948 84.9166 10.0497 84.2084 10.0497H81.2446V10.05ZM82.3774 9.07034H84.0242C84.4749 9.07034 84.8277 8.94468 85.0826 8.6941C85.339 8.44352 85.4663 8.09768 85.4663 7.65732C85.4663 7.21696 85.3349 6.86556 85.0711 6.60312C84.8083 6.34142 84.4518 6.2102 84.0022 6.2102H82.3774V9.07034Z" fill="white"/>
<path d="M88.8064 5.97055C88.8064 4.81627 89.2068 3.84361 90.0077 3.0537C90.8085 2.26379 91.7921 1.86865 92.9599 1.86865C94.1266 1.86865 95.1087 2.26379 95.9058 3.0537C96.703 3.84361 97.1008 4.81664 97.1008 5.97055C97.1008 7.1556 96.703 8.15458 95.9058 8.96784C95.1087 9.7811 94.1266 10.187 92.9599 10.187C91.7921 10.187 90.8085 9.7811 90.0077 8.96784C89.2068 8.15458 88.8064 7.1556 88.8064 5.97055ZM89.9742 5.97055C89.9742 6.86685 90.2637 7.62117 90.8432 8.23279C91.4226 8.84403 92.1282 9.14984 92.9599 9.14984C93.7906 9.14984 94.4947 8.84403 95.0704 8.23279C95.6461 7.62117 95.9345 6.86685 95.9345 5.97055C95.9345 5.10502 95.6461 4.37516 95.0704 3.78282C94.4947 3.19048 93.7906 2.89394 92.9599 2.89394C92.1282 2.89394 91.4226 3.19011 90.8432 3.78282C90.2637 4.37553 89.9742 5.10502 89.9742 5.97055Z" fill="white"/>
<path d="M101.401 10.05V2.98495H98.6213V2.00488H105.302V2.98458H102.523V10.0497H101.401V10.05Z" fill="white"/>
<path d="M106.115 10.0502L109.01 2.00537H110.211L113.105 10.0502H111.939L111.126 7.73713H108.084L107.271 10.0502H106.115ZM108.381 6.80229H110.829L109.937 4.26168L109.616 3.11073H109.593C109.48 3.59668 109.377 3.9807 109.284 4.26168L108.381 6.80229Z" fill="white"/>
<path d="M115.484 10.05V2.00488H116.618V5.53742H120.816V2.00488H121.938V10.0497H120.816V6.51712H116.618V10.0497H115.484V10.05Z" fill="white"/>
</g>
<defs>
<clipPath id="clip0_437_886">
<rect width="123" height="31" fill="white"/>
</clipPath>
</defs>
</svg>
