<svg width="123" height="31" viewBox="0 0 123 31" fill="none" xmlns="http://www.w3.org/2000/svg">
<g clip-path="url(#clip0_443_1254)">
<path d="M4.58821 29.1896L4.97189 27.873C3.37538 27.7632 2.14766 27.3188 1.28838 26.54C0.429458 25.7612 0 24.7626 0 23.5446C0 21.855 0.673215 20.4587 2.01965 19.3559C3.36608 18.2532 5.14234 17.702 7.34768 17.702H8.02425L8.33499 16.6815H11.899L11.5887 17.735C13.209 17.834 14.4613 18.2613 15.3448 19.0186C16.2282 19.7756 16.67 20.7523 16.67 21.9481C16.67 23.6599 15.9934 25.0807 14.641 26.2105C13.2883 27.3407 11.515 27.9056 9.32155 27.9056H8.53558L8.15152 29.1892H4.58821V29.1896ZM5.81257 25.0751L7.18357 20.5328H6.90929C5.97074 20.5328 5.19704 20.7716 4.58821 21.249C3.97863 21.726 3.67421 22.3762 3.67421 23.1991C3.67421 23.7477 3.86624 24.184 4.24993 24.5076C4.63361 24.8312 5.15462 25.0202 5.81257 25.0751ZM9.37738 25.0751H9.76106C10.6873 25.0751 11.4581 24.8394 12.0732 24.3675C12.6887 23.896 12.9961 23.248 12.9961 22.4255C12.9961 21.8769 12.7952 21.438 12.3933 21.1089C11.991 20.7797 11.4428 20.5933 10.7476 20.5495L9.37738 25.0751Z" fill="#608FF7"/>
<path d="M16.543 28.6959L19.9798 17.1753H23.4709L21.5517 23.6599L28.4249 17.1753H31.7337L28.3151 28.6959H24.8054L26.7249 22.2113L19.8517 28.6959H16.543Z" fill="#608FF7"/>
<path d="M29.0645 31L30.5635 25.898H31.6055C32.3487 24.9984 32.9824 24.0521 33.5064 23.059C34.0304 22.0664 34.5853 20.5822 35.1699 18.6072L35.5904 17.1753H45.516L42.9203 25.898H44.3642L42.445 31H39.4474L40.1418 28.6959H33.1588L32.2266 31H29.0645ZM35.4073 25.898H39.3741L41.1838 19.8909H38.2226L37.839 21.0266C37.1683 23.0234 36.3578 24.6474 35.4073 25.898Z" fill="#608FF7"/>
<path d="M43.3223 28.6959L50.1035 21.7012L47.2704 17.1753H51.1456L53.7595 21.9481L55.1856 17.1753H58.7318L57.3608 21.8165L62.5158 17.1753H66.9213L60.9807 22.1453L63.5943 28.6955H59.6458L58.0005 24.3671L56.1543 25.8484L55.3136 28.6955H51.7674L52.6814 25.6178L51.8404 24.2845L47.8554 28.6959H43.3223Z" fill="#608FF7"/>
<path d="M64.7266 28.6959L68.1633 17.1753H71.6545L69.7349 23.6599L76.6081 17.1753H79.9169L76.4983 28.6959H72.9886L74.9082 22.2113L68.035 28.6959H64.7266Z" fill="#608FF7"/>
<path d="M79.5195 28.6961L82.8588 17.5046H88.099C89.2359 17.5046 90.1418 17.7315 90.8165 18.1852C91.4904 18.6385 91.8276 19.2602 91.8276 20.0504C91.8276 20.8259 91.5232 21.4623 90.9136 21.9598C90.3044 22.4572 89.5125 22.7938 88.5374 22.9691C89.2356 23.1156 89.8087 23.401 90.2553 23.825C90.7018 24.2495 90.9255 24.7762 90.9255 25.4052C90.9255 26.3705 90.4585 27.1607 89.5244 27.775C88.5899 28.3895 87.3268 28.6965 85.7344 28.6965H79.5195V28.6961ZM80.9821 27.7305H85.6373C86.8721 27.7305 87.8508 27.5185 88.5743 27.0944C89.2974 26.6703 89.6587 26.085 89.6587 25.3389C89.6587 24.7391 89.3662 24.271 88.7816 23.9344C88.1962 23.5982 87.4411 23.4295 86.5148 23.4295H82.2742L80.9821 27.7305ZM82.5421 22.508H86.539C87.7414 22.508 88.7082 22.2923 89.4391 21.8605C90.1704 21.4294 90.5359 20.8548 90.5359 20.1379C90.5359 19.0263 89.6345 18.4702 87.8311 18.4702H83.7609L82.5421 22.508Z" fill="#608FF7"/>
<path d="M99.6763 28.9591C98.0835 28.9591 96.7839 28.5203 95.7765 27.6425C94.7688 26.7651 94.2656 25.6386 94.2656 24.2631C94.2656 22.4638 94.9723 20.8436 96.3861 19.4027C97.7995 17.9619 99.4891 17.2413 101.456 17.2413C102.95 17.2413 104.108 17.6509 104.928 18.4701C105.749 19.2897 106.159 20.3065 106.159 21.5204C106.159 22.2373 106.045 22.8882 105.818 23.4735H95.6061C95.5734 23.7956 95.557 24.044 95.557 24.2197C95.557 25.3462 95.9388 26.2495 96.7028 26.9297C97.4661 27.6103 98.4575 27.9502 99.6763 27.9502C101.154 27.9502 102.568 27.4531 103.917 26.4578L104.624 27.2259C103.08 28.3816 101.431 28.9591 99.6763 28.9591ZM95.8253 22.5079H104.844C104.908 22.2443 104.941 21.9374 104.941 21.5864C104.941 20.6208 104.644 19.8198 104.051 19.1833C103.458 18.5472 102.585 18.2288 101.431 18.2288C100.099 18.2288 98.9249 18.6384 97.9093 19.4576C96.8934 20.2772 96.1989 21.2936 95.8253 22.5079Z" fill="#608FF7"/>
<path d="M116.054 17.5924C117.711 17.5924 119.047 18.0312 120.063 18.909C121.079 19.7868 121.587 20.9355 121.587 22.3541C121.587 24.0803 120.835 25.6127 119.332 26.9512C117.829 28.2897 116.176 28.9591 114.372 28.9591C112.553 28.9591 111.168 28.4984 110.217 27.5769C109.267 26.6554 108.791 25.4629 108.791 23.9999C108.791 23.3271 108.856 22.6284 108.986 21.9041C109.116 21.1801 109.348 20.4117 109.681 19.5999C110.014 18.7882 110.424 18.0498 110.912 17.3837C111.399 16.7179 112.032 16.1256 112.812 15.6063C113.592 15.0873 114.47 14.7322 115.445 14.5421L122.732 13.1379L123 14.1032L115.81 15.5514C114.461 15.8294 113.397 16.305 112.617 16.9778C111.837 17.6509 111.228 18.5947 110.789 19.8086H110.887C112.3 18.3311 114.023 17.5924 116.054 17.5924ZM115.883 18.558C114.323 18.558 112.962 19.1029 111.801 20.1926C110.639 21.2824 110.058 22.5735 110.058 24.0658C110.058 25.1923 110.427 26.1212 111.167 26.8526C111.906 27.5843 112.974 27.9498 114.372 27.9498C115.834 27.9498 117.183 27.376 118.418 26.2272C119.653 25.0789 120.27 23.773 120.27 22.3103C120.27 21.1549 119.884 20.2405 119.113 19.5673C118.341 18.8945 117.264 18.558 115.883 18.558Z" fill="#608FF7"/>
<path d="M1.39258 5.98193C1.39258 4.80466 1.77998 3.82496 2.55405 3.04172C3.32775 2.2596 4.31022 1.86816 5.49997 1.86816C6.72843 1.86816 7.71202 2.22142 8.4511 2.9283L7.87948 3.77159C7.58214 3.50544 7.22153 3.29267 6.79802 3.13291C6.37563 2.97389 5.95734 2.89382 5.54649 2.89382C4.63101 2.89382 3.90495 3.18629 3.36682 3.77159C2.82795 4.35651 2.56038 5.08934 2.56038 5.97044C2.56038 6.85932 2.83465 7.61142 3.3832 8.22711C3.93286 8.84206 4.66041 9.14972 5.56807 9.14972C6.01874 9.14972 6.46309 9.05668 6.90073 8.8706C7.33987 8.68453 7.72355 8.42802 8.05067 8.10108L8.65727 8.91027C7.80356 9.76134 6.76192 10.1865 5.53495 10.1865C4.30649 10.1865 3.30988 9.78654 2.54251 8.98403C1.77626 8.18337 1.39258 7.18255 1.39258 5.98193Z" fill="white"/>
<path d="M10.3379 10.0502L13.2325 2.00537H14.4337L17.3283 10.0502H16.1616L15.3492 7.73713H12.3066L11.4942 10.0502H10.3379ZM12.6039 6.80229H15.0515L14.1591 4.26168L13.8387 3.11073H13.8156C13.7025 3.59668 13.5994 3.9807 13.5067 4.26168L12.6039 6.80229Z" fill="white"/>
<path d="M19.709 10.0501V2.00499H20.8422V7.2241L20.7741 8.39766H20.796C21.064 7.89614 21.2917 7.50174 21.4838 7.21261L25.0646 2.00499H26.1732V10.0498H25.053V4.83065L25.1211 3.65709H25.0981C24.8394 4.14304 24.6139 4.53448 24.4233 4.83065L20.8195 10.0498H19.709V10.0501ZM22.9805 1.62949C22.5157 1.62949 22.1179 1.4979 21.7856 1.23658C21.4532 0.974136 21.2873 0.619029 21.2873 0.170882V0H22.1808V0.15902C22.1808 0.395141 22.2608 0.578996 22.4204 0.711698C22.5801 0.845141 22.768 0.911121 22.9805 0.911121C23.202 0.911121 23.3925 0.845141 23.5536 0.711698C23.7133 0.578996 23.7933 0.391063 23.7933 0.1479V0H24.6742V0.170511C24.6742 0.618658 24.5108 0.974136 24.1822 1.2362C23.8547 1.4979 23.4543 1.62949 22.9805 1.62949Z" fill="white"/>
<path d="M31.3424 10.0501V2.98501H28.5625V2.00494H35.2437V2.98464H32.4637V10.0497H31.3424V10.0501Z" fill="white"/>
<path d="M41.6387 10.0501V2.00494H44.6025C45.3494 2.00494 45.9571 2.23513 46.4271 2.6944C46.8956 3.15404 47.1301 3.7638 47.1301 4.52332C47.1301 5.2832 46.8945 5.89889 46.4208 6.36928C45.9481 6.84041 45.3419 7.07579 44.6028 7.07579H42.7719V10.0497H41.6387V10.0501ZM42.7715 6.09609H44.4182C44.8998 6.09609 45.2809 5.95561 45.563 5.67427C45.8451 5.39329 45.9865 5.01001 45.9865 4.52332C45.9865 4.04477 45.8473 3.66928 45.5682 3.39535C45.2902 3.12216 44.9102 2.98501 44.4302 2.98501H42.7719V6.09609H42.7715Z" fill="white"/>
<path d="M48.377 10.0502L51.2715 2.00537H52.4728L55.3674 10.0502H54.2007L53.3883 7.73713H50.3456L49.5332 10.0502H48.377ZM50.643 6.80229H53.0906L52.1982 4.26168L51.8777 3.11073H51.8547C51.7415 3.59668 51.6385 3.9807 51.5458 4.26168L50.643 6.80229Z" fill="white"/>
<path d="M56.9922 9.09269L57.6219 8.32947C57.8496 8.57263 58.1343 8.77391 58.4741 8.93367C58.8127 9.09269 59.1618 9.17276 59.5209 9.17276C60.023 9.17276 60.4301 9.04117 60.739 8.77984C61.0479 8.5174 61.2027 8.1623 61.2027 7.71415C61.2027 7.30381 61.0624 6.97947 60.7844 6.74001C60.5064 6.50093 60.1421 6.38083 59.6925 6.38083H58.6974V5.44672H59.4982C59.9102 5.44672 60.2552 5.32477 60.5335 5.08198C60.8119 4.83918 60.9507 4.52782 60.9507 4.14787C60.9507 3.77609 60.8309 3.46805 60.5901 3.22526C60.3505 2.9821 59.9939 2.86052 59.5213 2.86052C58.857 2.86052 58.2545 3.08811 57.7134 3.54404L57.2318 2.70075C57.9039 2.14659 58.7204 1.86896 59.681 1.86896C60.3903 1.86896 60.9712 2.0606 61.4256 2.44425C61.8789 2.82827 62.1066 3.35018 62.1066 4.01146C62.1066 4.83177 61.7166 5.4356 60.9388 5.82296V5.84594C61.3739 5.96715 61.7192 6.19734 61.9741 6.5354C62.2302 6.87345 62.3578 7.28565 62.3578 7.7716C62.3578 8.50072 62.0966 9.08602 61.5737 9.52675C61.0523 9.96712 60.3981 10.1873 59.6129 10.1873C59.116 10.1873 58.6345 10.0906 58.1656 9.89669C57.6955 9.70245 57.3052 9.43446 56.9922 9.09269Z" fill="white"/>
<path d="M65.1367 10.0501V2.00494H68.1005C68.8474 2.00494 69.4551 2.23513 69.9251 2.6944C70.3937 3.15404 70.6281 3.7638 70.6281 4.52332C70.6281 5.2832 70.3926 5.89889 69.9188 6.36928C69.4462 6.84041 68.84 7.07579 68.1009 7.07579H66.2699V10.0497H65.1367V10.0501ZM66.2699 6.09609H67.9167C68.3982 6.09609 68.7793 5.95561 69.0614 5.67427C69.3435 5.39329 69.4849 5.01001 69.4849 4.52332C69.4849 4.04477 69.3457 3.66928 69.0666 3.39535C68.7886 3.12216 68.4086 2.98501 67.9286 2.98501H66.2703V6.09609H66.2699Z" fill="white"/>
<path d="M71.875 10.0502L74.7696 2.00537H75.9709L78.8654 10.0502H77.6987L76.8863 7.73713H73.8437L73.0313 10.0502H71.875ZM74.1414 6.80229H76.589L75.6966 4.26168L75.3762 3.11073H75.3531C75.24 3.59668 75.1369 3.9807 75.0442 4.26168L74.1414 6.80229Z" fill="white"/>
<path d="M81.2441 10.0501V2.00494H86.0147V2.98464H82.3773V5.22945H84.1502C84.8752 5.22945 85.4662 5.44445 85.9232 5.87332C86.3816 6.30293 86.6094 6.8975 86.6094 7.65664C86.6094 8.37093 86.3865 8.94807 85.941 9.38844C85.4941 9.82954 84.9161 10.0497 84.2079 10.0497H81.2441V10.0501ZM82.377 9.0704H84.0237C84.4744 9.0704 84.8272 8.94474 85.0821 8.69416C85.3385 8.44358 85.4658 8.09774 85.4658 7.65738C85.4658 7.21702 85.3344 6.86562 85.0706 6.60318C84.8078 6.34148 84.4513 6.21026 84.0018 6.21026H82.377V9.0704Z" fill="white"/>
<path d="M88.8066 5.97043C88.8066 4.81615 89.2071 3.84349 90.0079 3.05358C90.8088 2.26367 91.7924 1.86853 92.9602 1.86853C94.1268 1.86853 95.1089 2.26367 95.9061 3.05358C96.7032 3.84349 97.101 4.81652 97.101 5.97043C97.101 7.15548 96.7032 8.15445 95.9061 8.96772C95.1089 9.78098 94.1268 10.1869 92.9602 10.1869C91.7924 10.1869 90.8088 9.78098 90.0079 8.96772C89.2071 8.15445 88.8066 7.15548 88.8066 5.97043ZM89.9744 5.97043C89.9744 6.86673 90.264 7.62105 90.8434 8.23267C91.4228 8.84391 92.1284 9.14972 92.9602 9.14972C93.7908 9.14972 94.4949 8.84391 95.0706 8.23267C95.6463 7.62105 95.9347 6.86673 95.9347 5.97043C95.9347 5.1049 95.6463 4.37504 95.0706 3.7827C94.4949 3.19036 93.7908 2.89382 92.9602 2.89382C92.1284 2.89382 91.4228 3.18999 90.8434 3.7827C90.264 4.37541 89.9744 5.1049 89.9744 5.97043Z" fill="white"/>
<path d="M101.401 10.0501V2.98501H98.6211V2.00494H105.302V2.98464H102.522V10.0497H101.401V10.0501Z" fill="white"/>
<path d="M106.115 10.0502L109.01 2.00537H110.211L113.106 10.0502H111.939L111.127 7.73713H108.084L107.271 10.0502H106.115ZM108.382 6.80229H110.829L109.937 4.26168L109.616 3.11073H109.593C109.48 3.59668 109.377 3.9807 109.284 4.26168L108.382 6.80229Z" fill="white"/>
<path d="M115.484 10.0501V2.00494H116.618V5.53749H120.816V2.00494H121.937V10.0497H120.816V6.51718H116.618V10.0497H115.484V10.0501Z" fill="white"/>
</g>
<defs>
<clipPath id="clip0_443_1254">
<rect width="123" height="31" fill="white"/>
</clipPath>
</defs>
</svg>
